<svg xmlns="http://www.w3.org/2000/svg" viewBox="0 0 32 32"><title>curved circuit</title><g stroke-linecap="round" stroke-width="1" fill="none" stroke="#000000" stroke-linejoin="round" class="nc-icon-wrapper" transform="translate(0.5 0.5)"><path data-cap="butt" d="M16,12V9c0-3.9,3.1-7,7-7h0 c3.9,0,7,3.1,7,7v0c0,3.9-3.1,7-7,7h-7H9c-3.9,0-7,3.1-7,7v0c0,3.9,3.1,7,7,7h0c3.9,0,7-3.1,7-7v-3" stroke="#000000"></path> <polyline points="20,8 16,12 12,8 "></polyline> <polyline points="12,24 16,20 20,24 "></polyline></g></svg>