<svg xmlns="http://www.w3.org/2000/svg" viewBox="0 0 32 32"><title>invert process</title><g stroke-linecap="round" stroke-width="1" fill="none" stroke="#000000" stroke-linejoin="round" class="nc-icon-wrapper" transform="translate(0.5 0.5)"><path data-cap="butt" d="M2.618,9.217A15,15,0,0,1,31,16"></path><polyline points="3.617 1.22 2.617 9.22 10.617 8.22"></polyline><path d="M28.623,24.087A14.881,14.881,0,0,0,30.461,20" stroke="#000000"></path><path d="M21.228,30.054A15.007,15.007,0,0,0,25.26,27.8" stroke="#000000"></path><path d="M3.876,24.807a15.063,15.063,0,0,0,2.917,3.018" stroke="#000000"></path><path d="M11.2,30.2A14.951,14.951,0,0,0,16,31c.106,0,.21-.011.315-.013" stroke="#000000"></path><path d="M1,16a14.961,14.961,0,0,0,.64,4.326" stroke="#000000"></path></g></svg>