<svg xmlns="http://www.w3.org/2000/svg" viewBox="0 0 32 32"><title>artificial brain</title><g stroke-linecap="round" stroke-width="1" fill="none" stroke="#000000" stroke-linejoin="round" class="nc-icon-wrapper" transform="translate(0.5 0.5)"><path d="M12,14.555a3.976,3.976,0,0,0,1,7.3"></path><path d="M4.793,15.667A6.976,6.976,0,0,0,10,18"></path><path d="M18,5a3.992,3.992,0,0,0-7.861-.993C10.092,4.006,10.047,4,10,4A6.992,6.992,0,0,0,4.793,15.667a3.979,3.979,0,0,0-.484,6.275A7,7,0,1,0,18,24h5l1.586,1.586"></path><polyline points="24.586 6.414 22 9 18 9 18 12"></polyline><polyline points="25 16 18 16 18 20"></polyline><circle cx="26" cy="27" r="2" stroke="#000000"></circle><circle cx="27" cy="16" r="2" stroke="#000000"></circle><circle cx="26" cy="5" r="2" stroke="#000000"></circle></g></svg>