<svg xmlns="http://www.w3.org/2000/svg" viewBox="0 0 32 32"><title>artificial intelligence</title><g stroke-linecap="round" stroke-width="1" fill="none" stroke="#000000" stroke-linejoin="round" class="nc-icon-wrapper" transform="translate(0.5 0.5)"><path d="M24,18A7,7,0,0,0,24,4c-.047,0-.092.006-.139.007A3.992,3.992,0,0,0,16,5V6a4,4,0,0,0,4,4h1" data-cap="butt"></path><path d="M29.447,15.392A4.99,4.99,0,0,1,26,24H25" data-cap="butt"></path><path d="M8,18A7,7,0,0,1,8,4c.047,0,.092.006.139.007A3.992,3.992,0,0,1,16,5V6a4,4,0,0,1-4,4H11" data-cap="butt"></path><line x1="16" y1="24" x2="16" y2="19"></line><path d="M2.229,22.25A7,7,0,1,0,16,24a7,7,0,1,0,13.771-1.75" data-cap="butt"></path><path d="M2.553,15.392A4.99,4.99,0,0,0,6,24H7" data-cap="butt"></path><circle cx="9" cy="24" r="2" stroke="#000000"></circle><circle cx="23" cy="24" r="2" stroke="#000000"></circle><circle cx="23" cy="10" r="2" stroke="#000000"></circle><circle cx="16" cy="17" r="2" stroke="#000000"></circle><circle cx="9" cy="10" r="2" stroke="#000000"></circle></g></svg>