<svg xmlns="http://www.w3.org/2000/svg" viewBox="0 0 32 32"><title>baby monitor</title><g stroke-linecap="round" stroke-width="1" fill="none" stroke="#000000" stroke-linejoin="round" class="nc-icon-wrapper" transform="translate(0.5 0.5)"><line x1="20" y1="1" x2="20" y2="3" stroke="#000000"></line><line x1="27.071" y1="3.929" x2="25.657" y2="5.343" stroke="#000000"></line><line x1="30" y1="11" x2="28" y2="11" stroke="#000000"></line><path d="M9,8h8a6,6,0,0,1,6,6V27a3,3,0,0,1-3,3H6a3,3,0,0,1-3-3V14A6,6,0,0,1,9,8Z"></path><line x1="3" y1="1" x2="3" y2="14"></line><path d="M9,12h8a2,2,0,0,1,2,2v7a0,0,0,0,1,0,0H7a0,0,0,0,1,0,0V14A2,2,0,0,1,9,12Z"></path></g></svg>