<svg xmlns="http://www.w3.org/2000/svg" viewBox="0 0 32 32"><title>contactless</title><g stroke-linecap="round" stroke-width="1" fill="none" stroke="#000000" stroke-linejoin="round" class="nc-icon-wrapper" transform="translate(0.5 0.5)"><path d="M23.249,29.993A27.865,27.865,0,0,0,27,16,27.865,27.865,0,0,0,23.249,2.007"></path><path d="M4.476,20.353A6.963,6.963,0,0,0,6,16a6.963,6.963,0,0,0-1.524-4.353" stroke="#000000"></path><path d="M10.76,23.579A13.914,13.914,0,0,0,13,16a13.914,13.914,0,0,0-2.24-7.579"></path><path d="M17,26.782A20.863,20.863,0,0,0,20,16,20.863,20.863,0,0,0,17,5.218" stroke="#000000"></path></g></svg>