<svg xmlns="http://www.w3.org/2000/svg" viewBox="0 0 32 32"><title>cryptography</title><g stroke-linecap="round" stroke-width="1" fill="none" stroke="#000000" stroke-linejoin="round" class="nc-icon-wrapper" transform="translate(0.5 0.5)"><polyline points="25.586 3.586 23 1 18 1 18 7 23 11 23 16"></polyline><polyline points="1 16.682 1 9.182 9.182 1 14 1"></polyline><polyline points="10.609 8.436 5 14 5 21 1 21" stroke="#000000"></polyline><polyline points="18 31 23 31 31 23 31 15"></polyline><polyline points="6.414 28.414 9 31 14 31 14 26 9 21 9 16"></polyline><polyline points="21.414 23.586 27 18 27 11 31 11" stroke="#000000"></polyline><circle cx="16" cy="16" r="2"></circle><circle cx="12" cy="7" r="2" stroke="#000000"></circle><circle cx="5" cy="27" r="2"></circle><circle cx="27" cy="5" r="2"></circle><circle cx="20" cy="25" r="2" stroke="#000000"></circle></g></svg>