<svg xmlns="http://www.w3.org/2000/svg" viewBox="0 0 32 32"><title>earbuds</title><g stroke-linecap="round" stroke-width="1" fill="none" stroke="#000000" stroke-linejoin="round" class="nc-icon-wrapper" transform="translate(0.5 0.5)"><line x1="10" y1="7" x2="10" y2="9" stroke="#000000"></line><path d="M14,10V6a4,4,0,0,0-4-4C5.582,2,2,7.373,2,14V30H6V14a11.1,11.1,0,0,1,.294-2.508A4,4,0,0,0,14,10V6a4,4,0,0,0-4-4C5.582,2,2,7.373,2,14"></path><line x1="22" y1="7" x2="22" y2="9" stroke="#000000"></line><path d="M18,10V6a4,4,0,0,1,4-4c4.418,0,8,5.373,8,12V30H26V14a11.1,11.1,0,0,0-.294-2.508A4,4,0,0,1,18,10V6a4,4,0,0,1,4-4c4.418,0,8,5.373,8,12"></path></g></svg>