<svg xmlns="http://www.w3.org/2000/svg" viewBox="0 0 32 32"><title>face recognition</title><g stroke-linecap="round" stroke-width="1" fill="none" stroke="#000000" stroke-linejoin="round" class="nc-icon-wrapper" transform="translate(0.5 0.5)"><polyline points="2 8 2 2 8 2" stroke="#000000"></polyline><polyline points="30 8 30 2 24 2" stroke="#000000"></polyline><polyline points="2 24 2 30 8 30" stroke="#000000"></polyline><polyline points="30 24 30 30 24 30" stroke="#000000"></polyline><path d="M7,26l4.632-1.544A2,2,0,0,0,13,22.558V21.243C10.187,19.678,9,15.97,9,13V12a7,7,0,0,1,14,0v1c0,2.97-1.187,6.678-4,8.243v1.315a2,2,0,0,0,1.368,1.9L25,26"></path></g></svg>