<svg xmlns="http://www.w3.org/2000/svg" viewBox="0 0 32 32"><title>firewall</title><g stroke-linecap="round" stroke-width="1" fill="none" stroke="#000000" stroke-linejoin="round" class="nc-icon-wrapper" transform="translate(0.5 0.5)"><line x1="22" y1="5" x2="22" y2="13"></line> <polyline points="15,5 31,5 31,29 4,29 4,25 "></polyline> <line x1="31" y1="13" x2="19" y2="13"></line> <line x1="31" y1="21" x2="19" y2="21"></line> <line x1="22" y1="21" x2="22" y2="29"></line> <line x1="13" y1="25" x2="13" y2="29"></line> <path d="M1,15 C1,10,8,2,8,2s7,8,7,13c0,3.866-3.134,7-7,7S1,18.866,1,15z" stroke="#000000"></path> <path d="M8,17 c-1.103,0-2-0.897-2-2c0-0.871,0.795-2.613,2-4.576c1.205,1.963,2,3.705,2,4.576C10,16.103,9.103,17,8,17z" stroke="#000000"></path></g></svg>