<svg xmlns="http://www.w3.org/2000/svg" viewBox="0 0 32 32"><title>gaming controller</title><g stroke-linecap="round" stroke-width="1" fill="none" stroke="#000000" stroke-linejoin="round" class="nc-icon-wrapper" transform="translate(0.5 0.5)"><path data-cap="butt" d="M23.9,25.3l4.8,3.6 c1,0.8,2.5-0.1,2.3-1.4l-2.8-14.1c-0.4-2.2-2.3-3.7-4.5-3.7c-1.2,0-2.4,0.5-3.3,1.4L19.5,12h-6.9l-0.9-0.9c-0.9-0.9-2-1.4-3.3-1.4 c-2.2,0-4.1,1.6-4.5,3.7L1,27.5c-0.3,1.3,1.2,2.2,2.3,1.4l4.8-3.6"></path> <line x1="16" y1="8" x2="16" y2="2" stroke="#000000"></line> <line x1="19" y1="23" x2="13" y2="23"></line> <circle cx="10" cy="23" r="3" stroke="#000000"></circle> <circle cx="22" cy="23" r="3" stroke="#000000"></circle></g></svg>