<svg xmlns="http://www.w3.org/2000/svg" viewBox="0 0 32 32"><title>gopro</title><g stroke-linecap="round" stroke-width="1" fill="none" stroke="#000000" stroke-linejoin="round" class="nc-icon-wrapper" transform="translate(0.5 0.5)"><circle fill="#000000" cx="12" cy="9" r="1" stroke-linejoin="miter" stroke="none"></circle> <path d="M28,16v4 c0,1.105-0.895,2-2,2H10c-1.105,0-2-0.895-2-2V7c0-1.105,0.895-2,2-2h6"></path> <path d="M18,16h11 c1.105,0,2-0.895,2-2V4c0-1.105-0.895-2-2-2H18c-1.105,0-2,0.895-2,2v10C16,15.105,16.895,16,18,16z"></path> <path stroke="#000000" d="M3,29H1v-6 h2c1.657,0,3,1.343,3,3v0C6,27.657,4.657,29,3,29z"></path> <line x1="13" y1="30" x2="23" y2="30"></line> <line stroke="#000000" x1="6" y1="26" x2="25" y2="26"></line> <rect x="20" y="6" stroke="#000000" width="7" height="6"></rect></g></svg>