<svg xmlns="http://www.w3.org/2000/svg" viewBox="0 0 32 32"><title>headphones</title><g stroke-linecap="round" stroke-width="1" fill="none" stroke="#000000" stroke-linejoin="round" class="nc-icon-wrapper" transform="translate(0.5 0.5)"><path data-cap="butt" d="M3,18.401V11C3,5.477,7.477,1,13,1 h6c5.523,0,10,4.477,10,10v7.401" stroke="#000000"></path> <path d="M10,16.151 C9.515,16.052,9.014,16,8.5,16C4.358,16,1,19.358,1,23.5S4.358,31,8.5,31c0.514,0,1.015-0.052,1.5-0.151V16.151z"></path> <path d="M22,30.849 C22.485,30.948,22.986,31,23.5,31c4.142,0,7.5-3.358,7.5-7.5S27.642,16,23.5,16c-0.514,0-1.015,0.052-1.5,0.151V30.849z"></path></g></svg>