<svg xmlns="http://www.w3.org/2000/svg" viewBox="0 0 32 32"><title>keyboard wired</title><g stroke-linecap="round" stroke-width="1" fill="none" stroke="#000000" stroke-linejoin="round" class="nc-icon-wrapper" transform="translate(0.5 0.5)"><line x1="24" y1="8" x2="24" y2="4" stroke="#000000"></line> <path d="M15,24v2.5 c0,2.485,2.015,4.5,4.5,4.5h0c2.485,0,4.5-2.015,4.5-4.5V24" stroke="#000000"></path> <path d="M6,8V5.5 C6,3.015,8.015,1,10.5,1h0C12.985,1,15,3.015,15,5.5V8" stroke="#000000"></path> <rect x="1" y="8" width="30" height="16"></rect> <line x1="6" y1="13" x2="8" y2="13"></line> <line x1="12" y1="13" x2="14" y2="13"></line> <line x1="18" y1="13" x2="20" y2="13"></line> <line x1="24" y1="13" x2="26" y2="13"></line> <line x1="6" y1="19" x2="8" y2="19"></line> <line x1="12" y1="19" x2="20" y2="19"></line> <line x1="24" y1="19" x2="26" y2="19"></line></g></svg>