<svg xmlns="http://www.w3.org/2000/svg" viewBox="0 0 32 32"><title>keyboard mouse</title><g stroke-linecap="round" stroke-width="1" fill="none" stroke="#000000" stroke-linejoin="round" class="nc-icon-wrapper" transform="translate(0.5 0.5)"><polyline points="13,19 1,19 1,3 31,3 31,19 "></polyline> <line x1="6" y1="8" x2="8" y2="8"></line> <line x1="12" y1="8" x2="14" y2="8"></line> <line x1="18" y1="8" x2="20" y2="8"></line> <line x1="24" y1="8" x2="26" y2="8"></line> <line x1="6" y1="14" x2="8" y2="14"></line> <line x1="12" y1="14" x2="14" y2="14"></line> <path d="M22,29 L22,29c-2.761,0-5-2.239-5-5v-5c0-2.761,2.239-5,5-5h0c2.761,0,5,2.239,5,5v5C27,26.761,24.761,29,22,29z" stroke="#000000"></path> <line x1="22" y1="19" x2="22" y2="20" stroke="#000000"></line></g></svg>