<svg xmlns="http://www.w3.org/2000/svg" viewBox="0 0 32 32"><title>keyboard wireless</title><g stroke-linecap="round" stroke-width="1" fill="none" stroke="#000000" stroke-linejoin="round" class="nc-icon-wrapper" transform="translate(0.5 0.5)"><rect x="1" y="13" width="30" height="16"></rect> <line x1="6" y1="18" x2="8" y2="18"></line> <line x1="12" y1="18" x2="14" y2="18"></line> <line x1="18" y1="18" x2="20" y2="18"></line> <line x1="24" y1="18" x2="26" y2="18"></line> <line x1="6" y1="24" x2="8" y2="24"></line> <line x1="12" y1="24" x2="20" y2="24"></line> <line x1="24" y1="24" x2="26" y2="24"></line> <path d="M8,4.45 C10.005,2.326,12.848,1,16,1c3.15,0,5.991,1.324,7.997,3.447" stroke="#000000"></path> <path d="M11.528,8 C12.627,6.772,14.223,6,16,6c1.777,0,3.373,0.772,4.471,1.999" stroke="#000000"></path></g></svg>