<svg xmlns="http://www.w3.org/2000/svg" viewBox="0 0 32 32"><title>l settings</title><g stroke-linecap="round" stroke-width="1" fill="none" stroke="#000000" stroke-linejoin="round" class="nc-icon-wrapper" transform="translate(0.5 0.5)"><path d="M15,27H5 c-2.209,0-4-1.791-4-4v0h14"></path> <path d="M4,19V5 c0-1.105,0.895-2,2-2h20c1.105,0,2,0.895,2,2v9"></path> <line x1="15" y1="7" x2="17" y2="7"></line> <circle cx="25" cy="24" r="4" stroke="#000000"></circle> <line x1="25" y1="20" x2="25" y2="18" stroke="#000000"></line> <line x1="27.828" y1="21.172" x2="29.243" y2="19.757" stroke="#000000"></line> <line x1="29" y1="24" x2="31" y2="24" stroke="#000000"></line> <line x1="27.828" y1="26.828" x2="29.243" y2="28.243" stroke="#000000"></line> <line x1="25" y1="28" x2="25" y2="30" stroke="#000000"></line> <line x1="22.172" y1="26.828" x2="20.757" y2="28.243" stroke="#000000"></line> <line x1="21" y1="24" x2="19" y2="24" stroke="#000000"></line> <line x1="22.172" y1="21.172" x2="20.757" y2="19.757" stroke="#000000"></line></g></svg>