<svg xmlns="http://www.w3.org/2000/svg" viewBox="0 0 32 32"><title>l sync</title><g stroke-linecap="round" stroke-width="1" fill="none" stroke="#000000" stroke-linejoin="round" class="nc-icon-wrapper" transform="translate(0.5 0.5)"><path data-cap="butt" stroke="#000000" d="M28.5,20.437 C27.599,19.557,26.36,19,25,19c-2.761,0-5,2.239-5,5"></path> <path data-cap="butt" stroke="#000000" d="M21.486,28.553 C22.388,29.433,23.64,30,25,30c2.761,0,5-2.239,5-5"></path> <polygon points="31,17.834 31,23 26,23 " stroke-linejoin="miter" stroke="none" fill="#000000"></polygon> <polygon points="19,31.166 19,26 24,26 " stroke-linejoin="miter" stroke="none" fill="#000000"></polygon> <path d="M16,27H5 c-2.209,0-4-1.791-4-4v0h15"></path> <path d="M4,19V5 c0-1.105,0.895-2,2-2h20c1.105,0,2,0.895,2,2v10"></path> <line x1="15" y1="7" x2="17" y2="7"></line></g></svg>