<svg xmlns="http://www.w3.org/2000/svg" viewBox="0 0 32 32"><title>live streaming</title><g stroke-linecap="round" stroke-width="1" fill="none" stroke="#000000" stroke-linejoin="round" class="nc-icon-wrapper" transform="translate(0.5 0.5)"><path d="M19.536,7.464a5,5,0,0,0-7.072,0" stroke="#000000"></path><path d="M23.071,3.929a10,10,0,0,0-14.142,0" stroke="#000000"></path><polygon points="14 14 14 22 20 18 14 14" fill="#000000" stroke="none"></polygon><path d="M24,8h5a2,2,0,0,1,2,2V26a2,2,0,0,1-2,2H3a2,2,0,0,1-2-2V10A2,2,0,0,1,3,8H8"></path></g></svg>