<svg xmlns="http://www.w3.org/2000/svg" viewBox="0 0 32 32"><title>lock orientation</title><g stroke-linecap="round" stroke-width="1" fill="none" stroke="#000000" stroke-linejoin="round" class="nc-icon-wrapper" transform="translate(0.5 0.5)"><path d="M30.142,20.243l-9.9,9.9a2,2,0,0,1-2.828,0L1.858,14.586a2,2,0,0,1,0-2.828l9.9-9.9a2,2,0,0,1,2.828,0L16.728,4"></path><path d="M9,31a8,8,0,0,1-8-8" stroke="#000000"></path><rect x="21" y="7" width="10" height="7" stroke="#000000"></rect><path d="M23,7V4a3,3,0,0,1,3-3h0a3,3,0,0,1,3,3V7" stroke="#000000"></path></g></svg>