<svg xmlns="http://www.w3.org/2000/svg" viewBox="0 0 32 32"><title>messaging</title><g stroke-linecap="round" stroke-width="1" fill="none" stroke="#000000" stroke-linejoin="round" class="nc-icon-wrapper" transform="translate(0.5 0.5)"><circle cx="25" cy="7" r="4" stroke="#000000"></circle><line x1="25" y1="3" x2="25" y2="1" stroke="#000000"></line><line x1="27.828" y1="4.172" x2="29.243" y2="2.757" stroke="#000000"></line><line x1="29" y1="7" x2="31" y2="7" stroke="#000000"></line><line x1="27.828" y1="9.828" x2="29.243" y2="11.243" stroke="#000000"></line><line x1="25" y1="11" x2="25" y2="13" stroke="#000000"></line><line x1="22.172" y1="9.828" x2="20.757" y2="11.243" stroke="#000000"></line><line x1="21" y1="7" x2="19" y2="7" stroke="#000000"></line><line x1="22.172" y1="4.172" x2="20.757" y2="2.757" stroke="#000000"></line><path d="M15.834,3.007C7.627,3.079,1,8.417,1,15c0,6.627,6.716,12,15,12a18.481,18.481,0,0,0,3.756-.395L28,30l-.487-7.312A10.635,10.635,0,0,0,31,15v-.013"></path></g></svg>