<svg xmlns="http://www.w3.org/2000/svg" viewBox="0 0 32 32"><title>mobile chat</title><g stroke-linecap="round" stroke-width="1" fill="none" stroke="#000000" stroke-linejoin="round" class="nc-icon-wrapper" transform="translate(0.5 0.5)"><path d="M29,15H17l-5,3V3a2,2,0,0,1,2-2H29a2,2,0,0,1,2,2V13A2,2,0,0,1,29,15Z" stroke="#000000"></path><line x1="17" y1="10" x2="21" y2="10" stroke="#000000"></line><line x1="17" y1="6" x2="26" y2="6" stroke="#000000"></line><path d="M8,3H6A3,3,0,0,0,3,6V28a3,3,0,0,0,3,3H19a3,3,0,0,0,3-3V19"></path></g></svg>