<svg xmlns="http://www.w3.org/2000/svg" viewBox="0 0 32 32"><title>navigation</title><g stroke-linecap="round" stroke-width="1" fill="none" stroke="#000000" stroke-linejoin="round" class="nc-icon-wrapper" transform="translate(0.5 0.5)"><path data-cap="butt" d="M22.413,5H29c1.105,0,2,0.895,2,2v22 c0,1.105-0.895,2-2,2H3c-1.105,0-2-0.895-2-2V7c0-1.105,0.895-2,2-2h6.588"></path> <polyline data-cap="butt" points="22.844,9 27,9 27,27 5,27 5,9 9.139,9 "></polyline> <line data-cap="butt" x1="5" y1="27" x2="13.278" y2="15.964"></line> <line data-cap="butt" x1="27" y1="27" x2="18.722" y2="15.964"></line> <path d="M23,7.818 C23,12.026,16,19,16,19S9,12.026,9,7.818C9,3.504,12.617,1,16,1S23,3.504,23,7.818z" stroke="#000000"></path> <circle cx="16" cy="8" r="2" stroke="#000000"></circle> <line x1="16" y1="27" x2="16" y2="24"></line></g></svg>