<svg xmlns="http://www.w3.org/2000/svg" viewBox="0 0 32 32"><title>p heart</title><g stroke-linecap="round" stroke-width="1" fill="none" stroke="#000000" stroke-linejoin="round" class="nc-icon-wrapper" transform="translate(0.5 0.5)"><path d="M19,31H6a3,3,0,0,1-3-3V4A3,3,0,0,1,6,1H20a3,3,0,0,1,3,3V15"></path><path d="M30.041,19.992A3.206,3.206,0,0,0,25,20.515a3.206,3.206,0,0,0-5.041-.523,3.471,3.471,0,0,0,0,4.79L25,30l5.042-5.218A3.469,3.469,0,0,0,30.041,19.992Z" stroke="#000000"></path></g></svg>