<svg xmlns="http://www.w3.org/2000/svg" viewBox="0 0 32 32"><title>p settings</title><g stroke-linecap="round" stroke-width="1" fill="none" stroke="#000000" stroke-linejoin="round" class="nc-icon-wrapper" transform="translate(0.5 0.5)"><path d="M16,31H6a3,3,0,0,1-3-3V4A3,3,0,0,1,6,1H20a3,3,0,0,1,3,3V14"></path><circle cx="25" cy="25" r="4" stroke="#000000"></circle><line x1="25" y1="21" x2="25" y2="19" stroke="#000000"></line><line x1="27.828" y1="22.172" x2="29.243" y2="20.757" stroke="#000000"></line><line x1="29" y1="25" x2="31" y2="25" stroke="#000000"></line><line x1="27.828" y1="27.828" x2="29.243" y2="29.243" stroke="#000000"></line><line x1="25" y1="29" x2="25" y2="31" stroke="#000000"></line><line x1="22.172" y1="27.828" x2="20.757" y2="29.243" stroke="#000000"></line><line x1="21" y1="25" x2="19" y2="25" stroke="#000000"></line><line x1="22.172" y1="22.172" x2="20.757" y2="20.757" stroke="#000000"></line></g></svg>