<svg xmlns="http://www.w3.org/2000/svg" viewBox="0 0 32 32"><title>p sync</title><g stroke-linecap="round" stroke-width="1" fill="none" stroke="#000000" stroke-linejoin="round" class="nc-icon-wrapper" transform="translate(0.5 0.5)"><path d="M15,31H6a3,3,0,0,1-3-3V4A3,3,0,0,1,6,1H20a3,3,0,0,1,3,3V15"></path><path data-cap="butt" d="M28.5,20.437A4.994,4.994,0,0,0,20,24" stroke="#000000"></path><path data-cap="butt" d="M21.486,28.553A5.056,5.056,0,0,0,25,30a5,5,0,0,0,5-5" stroke="#000000"></path><polygon points="31 17.834 31 23 26 23 31 17.834" stroke="none" fill="#000000"></polygon><polygon points="19 31.166 19 26 24 26 19 31.166" stroke="none" fill="#000000"></polygon></g></svg>