<svg xmlns="http://www.w3.org/2000/svg" viewBox="0 0 32 32"><title>phone charging</title><g stroke-linecap="round" stroke-width="1" fill="none" stroke="#000000" stroke-linejoin="round" class="nc-icon-wrapper" transform="translate(0.5 0.5)"><path d="M15,26H3 c-1.105,0-2-0.895-2-2V3c0-1.105,0.895-2,2-2h12c1.105,0,2,0.895,2,2v21C17,25.105,16.105,26,15,26z"></path> <line x1="1" y1="20" x2="17" y2="20"></line> <line x1="1" y1="5" x2="17" y2="5"></line> <path d="M30,15v3 c0,2.209-1.791,4-4,4h0c-2.209,0-4-1.791-4-4v-3" stroke="#000000"></path> <line x1="23" y1="15" x2="23" y2="12" stroke="#000000"></line> <line x1="29" y1="15" x2="29" y2="12" stroke="#000000"></line> <polyline points=" 9,29 9,31 26,31 26,22 " stroke="#000000"></polyline> <line x1="21" y1="15" x2="31" y2="15" stroke="#000000"></line></g></svg>