<svg xmlns="http://www.w3.org/2000/svg" viewBox="0 0 32 32"><title>phone charging 2</title><g stroke-linecap="round" stroke-width="1" fill="none" stroke="#000000" stroke-linejoin="round" class="nc-icon-wrapper" transform="translate(0.5 0.5)"><path d="M15,31H3 c-1.105,0-2-0.895-2-2V8c0-1.105,0.895-2,2-2h12c1.105,0,2,0.895,2,2v21C17,30.105,16.105,31,15,31z"></path> <line x1="1" y1="25" x2="17" y2="25"></line> <line x1="1" y1="10" x2="17" y2="10"></line> <path d="M30,17v-3 c0-2.209-1.791-4-4-4h0c-2.209,0-4,1.791-4,4v3" stroke="#000000"></path> <line x1="23" y1="17" x2="23" y2="20" stroke="#000000"></line> <line x1="29" y1="17" x2="29" y2="20" stroke="#000000"></line> <polyline points=" 9,3 9,1 26,1 26,10 " stroke="#000000"></polyline> <line x1="21" y1="17" x2="31" y2="17" stroke="#000000"></line></g></svg>