<svg xmlns="http://www.w3.org/2000/svg" viewBox="0 0 32 32"><title>projector</title><g stroke-linecap="round" stroke-width="1" fill="none" stroke="#000000" stroke-linejoin="round" class="nc-icon-wrapper" transform="translate(0.5 0.5)"><circle cx="12" cy="16" r="6"></circle><circle cx="12" cy="16" r="2" stroke="#000000"></circle><line x1="22" y1="18" x2="27" y2="18"></line><line x1="22" y1="22" x2="27" y2="22"></line><line x1="6" y1="27" x2="6" y2="29"></line><line x1="26" y1="27" x2="26" y2="29"></line><line x1="12" y1="6" x2="12" y2="3" stroke="#000000"></line><line x1="19.071" y1="8.929" x2="21.192" y2="6.808" stroke="#000000"></line><line x1="4.929" y1="8.929" x2="2.808" y2="6.808" stroke="#000000"></line><path d="M6.809,13H4a3,3,0,0,0-3,3v8a3,3,0,0,0,3,3H28a3,3,0,0,0,3-3V16a3,3,0,0,0-3-3H17.191" data-cap="butt"></path></g></svg>