<svg xmlns="http://www.w3.org/2000/svg" viewBox="0 0 32 32"><title>ram</title><g stroke-linecap="round" stroke-width="1" fill="none" stroke="#000000" stroke-linejoin="round" class="nc-icon-wrapper" transform="translate(0.5 0.5)"><rect x="8" y="8" width="6" height="6" stroke="#000000"></rect> <rect x="18" y="8" width="6" height="6" stroke="#000000"></rect> <rect x="8" y="19" width="6" height="6" stroke="#000000"></rect> <rect x="18" y="19" width="6" height="6" stroke="#000000"></rect> <path d="M28,22c0-1.7,1.3-3,3-3v-5 c-1.7,0-3-1.3-3-3s1.3-3,3-3V6c0-2.8-2.2-5-5-5H6C3.2,1,1,3.2,1,6v2c0,0,0.1,0,0.1,0c1.7,0,3,1.3,3,3s-1.3,3-3,3c0,0-0.1,0-0.1,0v5 c0,0,0.1,0,0.1,0c1.7,0,3,1.3,3,3s-1.3,3-3,3c0,0-0.1,0-0.1,0v1c0,2.8,2.2,5,5,5h20c2.8,0,5-2.2,5-5v-1C29.3,25,28,23.7,28,22z"></path></g></svg>