<svg xmlns="http://www.w3.org/2000/svg" viewBox="0 0 32 32"><title>router</title><g stroke-linecap="round" stroke-width="1" fill="none" stroke="#000000" stroke-linejoin="round" class="nc-icon-wrapper" transform="translate(0.5 0.5)"><line x1="8" y1="26" x2="6" y2="26" stroke="#000000"></line><line x1="14" y1="26" x2="12" y2="26" stroke="#000000"></line><line x1="21" y1="21" x2="21" y2="11"></line><circle cx="21" cy="9" r="2"></circle><path d="M6,31A5,5,0,0,1,6,21H26a5,5,0,0,1,0,10Z" data-cap="butt"></path><path d="M25.243,4.757a6,6,0,0,1,0,8.486" stroke="#000000"></path><path d="M16.757,13.243a6,6,0,0,1,0-8.486" stroke="#000000"></path><path d="M28.071,1.929a10,10,0,0,1,0,14.142" stroke="#000000"></path><path d="M13.929,16.071a10,10,0,0,1,0-14.142" stroke="#000000"></path></g></svg>