<svg xmlns="http://www.w3.org/2000/svg" viewBox="0 0 32 32"><title>screen reader</title><g stroke-linecap="round" stroke-width="1" fill="none" stroke="#000000" stroke-linejoin="round" class="nc-icon-wrapper" transform="translate(0.5 0.5)"><path d="M13,29H4a3,3,0,0,1-3-3V6A3,3,0,0,1,4,3H28a3,3,0,0,1,3,3v4"></path><polygon points="14 16 8 16 8 24 14 24 20 29 20 11 14 16" stroke="#000000"></polygon><path d="M26.127,12a9,9,0,0,1,0,16" stroke="#000000"></path><path d="M24,16.535a4,4,0,0,1,0,6.93" stroke="#000000"></path></g></svg>