<svg xmlns="http://www.w3.org/2000/svg" viewBox="0 0 32 32"><title>smartwatch</title><g stroke-linecap="round" stroke-width="1" fill="none" stroke="#000000" stroke-linejoin="round" class="nc-icon-wrapper" transform="translate(0.5 0.5)"><polyline data-cap="butt" points="8 6 9 1 23 1 24 6" stroke="#000000"></polyline><polyline data-cap="butt" points="24 26 23 31 9 31 8 26" stroke="#000000"></polyline><path d="M24,26H8a3,3,0,0,1-3-3V9A3,3,0,0,1,8,6H24a3,3,0,0,1,3,3V23A3,3,0,0,1,24,26Z"></path><polyline data-cap="butt" points="27 14 29 14 29 18 27 18"></polyline><rect x="9" y="10" width="14" height="12" stroke="#000000"></rect></g></svg>