<svg xmlns="http://www.w3.org/2000/svg" viewBox="0 0 32 32"><title>sync devices</title><g stroke-linecap="round" stroke-width="1" fill="none" stroke="#000000" stroke-linejoin="round" class="nc-icon-wrapper" transform="translate(0.5 0.5)"><path d="M19,1h0a8.024,8.024,0,0,1,8,8h0" stroke="#000000"></path><path d="M5,23H5a8.024,8.024,0,0,0,8,8h0" stroke="#000000"></path><path d="M12,19H3a2.006,2.006,0,0,1-2-2V3A2.006,2.006,0,0,1,3,1h9a2.006,2.006,0,0,1,2,2V17A2.006,2.006,0,0,1,12,19Z"></path><path d="M29,31H20a2.006,2.006,0,0,1-2-2V15a2.006,2.006,0,0,1,2-2h9a2.006,2.006,0,0,1,2,2V29A2.006,2.006,0,0,1,29,31Z"></path><line x1="1" y1="14" x2="14" y2="14"></line><line x1="18" y1="26" x2="31" y2="26"></line></g></svg>