<svg xmlns="http://www.w3.org/2000/svg" viewBox="0 0 32 32"><title>virtual environment</title><g stroke-linecap="round" stroke-width="1" fill="none" stroke="#000000" stroke-linejoin="round" class="nc-icon-wrapper" transform="translate(0.5 0.5)"><path d="M1,7C1,4.791,7.716,3,16,3S31,4.791,31,7"></path><path d="M1,7.05c0,1.516,3.244,2.83,8,3.492v17.9c-4.756-.663-8-1.977-8-3.492V7.05Z"></path><path d="M31,7.05c0,1.516-3.244,2.83-8,3.492v17.9c4.756-.663,8-1.977,8-3.492V7.05Z"></path><path d="M23,21.47A50.264,50.264,0,0,0,16,21a50.264,50.264,0,0,0-7,.47" data-cap="butt"></path></g></svg>