<svg xmlns="http://www.w3.org/2000/svg" viewBox="0 0 32 32"><title>voice recognition</title><g stroke-linecap="round" stroke-width="1" fill="none" stroke="#000000" stroke-linejoin="round" class="nc-icon-wrapper" transform="translate(0.5 0.5)"><path d="M1,5V21a3,3,0,0,0,3,3h7l5,6,5-6h7a3,3,0,0,0,3-3V5a3,3,0,0,0-3-3H4A3,3,0,0,0,1,5Z"></path><line x1="6" y1="10" x2="6" y2="16" stroke="#000000"></line><line x1="11" y1="7" x2="11" y2="19" stroke="#000000"></line><line x1="16" y1="11" x2="16" y2="15" stroke="#000000"></line><line x1="26" y1="11" x2="26" y2="15" stroke="#000000"></line><line x1="21" y1="9" x2="21" y2="17" stroke="#000000"></line></g></svg>