<svg xmlns="http://www.w3.org/2000/svg" viewBox="0 0 32 32"><title>vr headset</title><g stroke-linecap="round" stroke-width="1" fill="none" stroke="#000000" stroke-linejoin="round" class="nc-icon-wrapper" transform="translate(0.5 0.5)"><path d="M5.513,23C7.669,27.756,11.832,31,16,31s8.331-3.244,10.487-8" data-cap="butt"></path><line x1="6" y1="14" x2="26" y2="14" stroke="#000000"></line><path d="M27.3,9A11.985,11.985,0,0,0,4.7,9" data-cap="butt"></path><path d="M31,20V12a3,3,0,0,0-3-3H4a3,3,0,0,0-3,3v8a3,3,0,0,0,3,3h8l1.642-2.668a2.8,2.8,0,0,1,4.754-.024L20.091,23H28A3,3,0,0,0,31,20Z" stroke="#000000"></path></g></svg>