<svg xmlns="http://www.w3.org/2000/svg" viewBox="0 0 32 32"><title>wifi protected</title><g stroke-linecap="round" stroke-width="1" fill="none" stroke="#000000" stroke-linejoin="round" class="nc-icon-wrapper" transform="translate(0.5 0.5)"><path d="M16,24 c-1.657,0-3-1.343-3-3s1.343-3,3-3c0.887,0,1.684,0.385,2.233,0.996"></path> <path d="M23.778,13.222 C21.788,11.231,19.038,10,16,10c-3.038,0-5.788,1.231-7.778,3.222"></path> <path d="M29.612,7.638 C26.128,4.155,21.316,2,16,2C10.684,2,5.872,4.155,2.388,7.638"></path> <rect x="20" y="23" width="10" height="7" stroke="#000000"></rect> <path d="M22,23v-3 c0-1.657,1.343-3,3-3h0c1.657,0,3,1.343,3,3v3" stroke="#000000"></path></g></svg>