<svg xmlns="http://www.w3.org/2000/svg" viewBox="0 0 32 32"><title>cloud data sync</title><g stroke-linecap="round" stroke-width="1" fill="none" stroke="#000000" stroke-linejoin="round" class="nc-icon-wrapper" transform="translate(0.5 0.5)"><path d="M18.985,4A11.993,11.993,0,0,0,7.157,14.053,7,7,0,0,0,7.985,28h11a12,12,0,0,0,0-24Z"></path><path data-cap="butt" d="M20.5,13.437A4.994,4.994,0,0,0,12,17" stroke="#000000"></path><path data-cap="butt" d="M13.486,21.553A5.056,5.056,0,0,0,17,23a5,5,0,0,0,5-5" stroke="#000000"></path><polygon points="23 10.834 23 16 18 16 23 10.834" stroke="none" fill="#000000"></polygon><polygon points="11 24.166 11 19 16 19 11 24.166" stroke="none" fill="#000000"></polygon></g></svg>