<svg xmlns="http://www.w3.org/2000/svg" viewBox="0 0 32 32"><title>file mp3</title><g stroke-linecap="round" stroke-width="1" fill="none" stroke="#000000" stroke-linejoin="round" class="nc-icon-wrapper" transform="translate(0.5 0.5)"><polyline data-cap="butt" points="20,1 20,9 28,9 "></polyline> <polyline points="28,13 28,9 20,1 4,1 4,13 "></polyline> <polyline points="4,27 4,31 28,31 28,27 "></polyline> <path d="M10.4,23l-1.2-4.1h0c0.1,0.7,0.1,1.2,0.1,1.6V23H7.9v-5.7h2.1l1.2,4.1h0l1.2-4.1 h2.1V23H13v-2.5c0-0.1,0-0.3,0-0.4s0-0.5,0.1-1.2h0L11.8,23H10.4z" stroke-linejoin="miter" stroke="none" fill="#000000"></path> <path d="M19.8,19.1c0,0.6-0.2,1.1-0.6,1.5s-0.9,0.5-1.6,0.5h-0.4V23h-1.5v-5.7h2 c0.7,0,1.3,0.2,1.6,0.5S19.8,18.5,19.8,19.1z M17.2,19.8h0.3c0.2,0,0.4-0.1,0.6-0.2s0.2-0.3,0.2-0.5c0-0.4-0.2-0.6-0.6-0.6h-0.4 V19.8z" stroke-linejoin="miter" stroke="none" fill="#000000"></path> <path d="M24.2,18.5c0,0.4-0.1,0.7-0.3,0.9S23.4,19.9,23,20v0c1,0.1,1.4,0.6,1.4,1.4 c0,0.5-0.2,0.9-0.6,1.3s-1,0.5-1.8,0.5c-0.3,0-0.6,0-0.9-0.1s-0.5-0.1-0.8-0.2v-1.3c0.2,0.1,0.5,0.2,0.8,0.3s0.5,0.1,0.7,0.1 c0.3,0,0.6,0,0.7-0.1s0.2-0.2,0.2-0.4c0-0.2,0-0.3-0.1-0.4s-0.2-0.1-0.4-0.2s-0.4-0.1-0.7-0.1h-0.4v-1.2h0.4c0.8,0,1.2-0.2,1.2-0.6 c0-0.2-0.1-0.3-0.2-0.3s-0.3-0.1-0.5-0.1c-0.4,0-0.7,0.1-1.1,0.4l-0.6-1c0.3-0.2,0.6-0.4,0.9-0.4s0.7-0.1,1.1-0.1 c0.6,0,1.1,0.1,1.4,0.4S24.2,18.1,24.2,18.5z" stroke-linejoin="miter" stroke="none" fill="#000000"></path> <rect x="1" y="13" width="30" height="14"></rect></g></svg>