<svg xmlns="http://www.w3.org/2000/svg" viewBox="0 0 32 32"><title>file log</title><g stroke-linecap="round" stroke-width="1" fill="none" stroke="#000000" stroke-linejoin="round" class="nc-icon-wrapper" transform="translate(0.5 0.5)"><polyline data-cap="butt" points="20,1 20,9 28,9 "></polyline> <polyline points="28,13 28,9 20,1 4,1 4,13 "></polyline> <polyline points="4,27 4,31 28,31 28,27 "></polyline> <path d="M8.1,23v-5.7h1.5v4.5h2.2V23H8.1z" stroke-linejoin="miter" stroke="none" fill="#000000"></path> <path d="M18.1,20.1c0,1-0.2,1.7-0.7,2.2s-1.2,0.8-2.1,0.8c-0.9,0-1.6-0.3-2.1-0.8 s-0.7-1.2-0.7-2.2c0-1,0.2-1.7,0.7-2.2s1.2-0.8,2.1-0.8c0.9,0,1.6,0.2,2.1,0.7S18.1,19.2,18.1,20.1z M14.2,20.1 c0,1.1,0.4,1.7,1.2,1.7c0.4,0,0.7-0.1,0.9-0.4s0.3-0.7,0.3-1.3c0-0.6-0.1-1-0.3-1.3s-0.5-0.4-0.9-0.4C14.6,18.5,14.2,19,14.2,20.1z" stroke-linejoin="miter" stroke="none" fill="#000000"></path> <path d="M21.5,19.7h2.5v3.1c-0.7,0.2-1.4,0.3-2.2,0.3c-0.9,0-1.6-0.3-2-0.8 S19,21.1,19,20.1c0-0.9,0.3-1.6,0.8-2.2s1.3-0.8,2.2-0.8c0.4,0,0.7,0,1,0.1s0.6,0.2,0.8,0.3l-0.5,1.2c-0.4-0.2-0.9-0.3-1.4-0.3 c-0.5,0-0.8,0.1-1,0.4s-0.4,0.7-0.4,1.3c0,0.5,0.1,0.9,0.3,1.2s0.5,0.4,1,0.4c0.2,0,0.4,0,0.6-0.1v-0.9h-1V19.7z" stroke-linejoin="miter" stroke="none" fill="#000000"></path> <rect x="1" y="13" width="30" height="14"></rect></g></svg>