<svg xmlns="http://www.w3.org/2000/svg" viewBox="0 0 32 32"><title>file ai</title><g stroke-linecap="round" stroke-width="1" fill="none" stroke="#000000" stroke-linejoin="round" class="nc-icon-wrapper" transform="translate(0.5 0.5)"><polyline data-cap="butt" points="20,1 20,9 28,9 "></polyline> <polyline points="28,13 28,9 20,1 4,1 4,13 "></polyline> <polyline points="4,27 4,31 28,31 28,27 "></polyline> <path d="M15.8,23l-0.3-1.1h-1.9L13.4,23h-1.7l1.9-5.7h2.1l1.9,5.7H15.8z M15.2,20.7 L15,19.7c-0.1-0.2-0.1-0.5-0.2-0.8s-0.1-0.6-0.2-0.7c0,0.1-0.1,0.4-0.1,0.7s-0.2,0.9-0.5,1.8H15.2z" stroke-linejoin="miter" stroke="none" fill="#000000"></path> <path d="M18.1,23v-5.7h1.6V23H18.1z" stroke-linejoin="miter" stroke="none" fill="#000000"></path> <rect x="1" y="13" width="30" height="14"></rect></g></svg>