<svg xmlns="http://www.w3.org/2000/svg" viewBox="0 0 32 32"><title>file pptx</title><g stroke-linecap="round" stroke-width="1" fill="none" stroke="#000000" stroke-linejoin="round" class="nc-icon-wrapper" transform="translate(0.5 0.5)"><polyline data-cap="butt" points="20,1 20,9 28,9 "></polyline> <polyline points="28,13 28,9 20,1 4,1 4,13 "></polyline> <polyline points="4,27 4,31 28,31 28,27 "></polyline> <path d="M10.5,19.1c0,0.6-0.2,1.1-0.6,1.5S9,21.1,8.3,21.1H7.8V23H6.3v-5.7h2 c0.7,0,1.3,0.2,1.6,0.5S10.5,18.5,10.5,19.1z M7.8,19.8h0.3c0.2,0,0.4-0.1,0.6-0.2s0.2-0.3,0.2-0.5c0-0.4-0.2-0.6-0.6-0.6H7.8V19.8z " stroke-linejoin="miter" stroke="none" fill="#000000"></path> <path d="M15.5,19.1c0,0.6-0.2,1.1-0.6,1.5s-0.9,0.5-1.6,0.5h-0.4V23h-1.5v-5.7h2 c0.7,0,1.3,0.2,1.6,0.5S15.5,18.5,15.5,19.1z M12.9,19.8h0.3c0.2,0,0.4-0.1,0.6-0.2s0.2-0.3,0.2-0.5c0-0.4-0.2-0.6-0.6-0.6h-0.4 V19.8z" stroke-linejoin="miter" stroke="none" fill="#000000"></path> <path d="M18.9,23h-1.5v-4.4H16v-1.3h4.3v1.3h-1.4V23z" stroke-linejoin="miter" stroke="none" fill="#000000"></path> <path d="M26.3,23h-1.8l-1.1-1.8L22.3,23h-1.7l1.9-2.9l-1.8-2.8h1.7l1,1.8l1-1.8h1.8 l-1.8,2.9L26.3,23z" stroke-linejoin="miter" stroke="none" fill="#000000"></path> <rect x="1" y="13" width="30" height="14"></rect></g></svg>