<svg xmlns="http://www.w3.org/2000/svg" viewBox="0 0 32 32"><title>file jar</title><g stroke-linecap="round" stroke-width="1" fill="none" stroke="#000000" stroke-linejoin="round" class="nc-icon-wrapper" transform="translate(0.5 0.5)"><polyline data-cap="butt" points="20,1 20,9 28,9 "></polyline> <polyline points="28,13 28,9 20,1 4,1 4,13 "></polyline> <polyline points="4,27 4,31 28,31 28,27 "></polyline> <path d="M9.1,24.8c-0.3,0-0.5,0-0.8-0.1v-1.2c0.1,0,0.2,0,0.3,0.1s0.2,0,0.3,0 c0.3,0,0.4-0.1,0.5-0.2s0.2-0.4,0.2-0.8v-5.3h1.6v5.2c0,0.8-0.2,1.4-0.5,1.8S9.8,24.8,9.1,24.8z" stroke-linejoin="miter" stroke="none" fill="#000000"></path> <path d="M15.9,23l-0.3-1.1h-1.9L13.5,23h-1.7l1.9-5.7h2.1l1.9,5.7H15.9z M15.3,20.7 l-0.2-0.9c-0.1-0.2-0.1-0.5-0.2-0.8s-0.1-0.6-0.2-0.7c0,0.1-0.1,0.4-0.1,0.7s-0.2,0.9-0.5,1.8H15.3z" stroke-linejoin="miter" stroke="none" fill="#000000"></path> <path d="M19.8,20.9V23h-1.5v-5.7h1.9c1.6,0,2.3,0.6,2.3,1.7c0,0.7-0.3,1.2-1,1.5l1.7,2.5 h-1.8l-1.2-2.1H19.8z M19.8,19.8h0.3c0.5,0,0.8-0.2,0.8-0.7c0-0.4-0.3-0.6-0.8-0.6h-0.3V19.8z" stroke-linejoin="miter" stroke="none" fill="#000000"></path> <rect x="1" y="13" width="30" height="14"></rect></g></svg>