<svg xmlns="http://www.w3.org/2000/svg" viewBox="0 0 32 32"><title>file mkv</title><g stroke-linecap="round" stroke-width="1" fill="none" stroke="#000000" stroke-linejoin="round" class="nc-icon-wrapper" transform="translate(0.5 0.5)"><polyline data-cap="butt" points="20,1 20,9 28,9 "></polyline> <polyline points="28,13 28,9 20,1 4,1 4,13 "></polyline> <polyline points="4,27 4,31 28,31 28,27 "></polyline> <path d="M9.7,23l-1.2-4.1h0c0.1,0.7,0.1,1.2,0.1,1.6V23H7.2v-5.7h2.1l1.2,4.1h0l1.2-4.1 h2.1V23h-1.4v-2.5c0-0.1,0-0.3,0-0.4s0-0.5,0.1-1.2h0L11.2,23H9.7z" stroke-linejoin="miter" stroke="none" fill="#000000"></path> <path d="M19.8,23h-1.7L17,20.8l-0.5,0.3V23H15v-5.7h1.6v2.5c0.1-0.2,0.2-0.4,0.5-0.7 l1.2-1.8h1.7l-1.8,2.6L19.8,23z" stroke-linejoin="miter" stroke="none" fill="#000000"></path> <path d="M23.7,17.3h1.7L23.5,23h-1.8l-1.9-5.7h1.7l0.8,2.9c0.2,0.6,0.2,1.1,0.3,1.3 c0-0.2,0.1-0.4,0.1-0.7s0.1-0.5,0.1-0.6L23.7,17.3z" stroke-linejoin="miter" stroke="none" fill="#000000"></path> <rect x="1" y="13" width="30" height="14"></rect></g></svg>