<svg xmlns="http://www.w3.org/2000/svg" viewBox="0 0 32 32"><title>file srt</title><g stroke-linecap="round" stroke-width="1" fill="none" stroke="#000000" stroke-linejoin="round" class="nc-icon-wrapper" transform="translate(0.5 0.5)"><polyline data-cap="butt" points="20,1 20,9 28,9 "></polyline> <polyline points="28,13 28,9 20,1 4,1 4,13 "></polyline> <polyline points="4,27 4,31 28,31 28,27 "></polyline> <path d="M13,21.3c0,0.4-0.1,0.7-0.3,0.9s-0.4,0.5-0.8,0.6s-0.7,0.2-1.2,0.2 c-0.4,0-0.7,0-1-0.1S9.3,22.9,9,22.7v-1.4c0.3,0.2,0.6,0.3,0.9,0.4s0.6,0.1,0.9,0.1c0.2,0,0.4,0,0.5-0.1s0.2-0.2,0.2-0.3 c0-0.1,0-0.1-0.1-0.2s-0.1-0.1-0.2-0.2s-0.3-0.2-0.8-0.4c-0.4-0.2-0.7-0.3-0.8-0.5s-0.3-0.3-0.4-0.5S9,19.2,9,18.9 c0-0.5,0.2-0.9,0.6-1.2s0.9-0.4,1.6-0.4c0.6,0,1.2,0.1,1.8,0.4l-0.5,1.2c-0.5-0.2-1-0.4-1.4-0.4c-0.2,0-0.3,0-0.4,0.1 s-0.1,0.2-0.1,0.3c0,0.1,0.1,0.2,0.2,0.3s0.4,0.2,0.9,0.5c0.5,0.2,0.8,0.5,1,0.7S13,20.9,13,21.3z" stroke-linejoin="miter" stroke="none" fill="#000000"></path> <path d="M15.4,20.9V23h-1.5v-5.7h1.9c1.6,0,2.3,0.6,2.3,1.7c0,0.7-0.3,1.2-1,1.5l1.7,2.5 H17l-1.2-2.1H15.4z M15.4,19.8h0.3c0.5,0,0.8-0.2,0.8-0.7c0-0.4-0.3-0.6-0.8-0.6h-0.3V19.8z" stroke-linejoin="miter" stroke="none" fill="#000000"></path> <path d="M21.8,23h-1.5v-4.4h-1.4v-1.3h4.3v1.3h-1.4V23z" stroke-linejoin="miter" stroke="none" fill="#000000"></path> <rect x="1" y="13" width="30" height="14"></rect></g></svg>