<svg xmlns="http://www.w3.org/2000/svg" viewBox="0 0 32 32"><title>file bmp</title><g stroke-linecap="round" stroke-width="1" fill="none" stroke="#000000" stroke-linejoin="round" class="nc-icon-wrapper" transform="translate(0.5 0.5)"><polyline data-cap="butt" points="20,1 20,9 28,9 "></polyline> <polyline points="28,13 28,9 20,1 4,1 4,13 "></polyline> <polyline points="4,27 4,31 28,31 28,27 "></polyline> <path d="M7.5,17.3h2c0.8,0,1.4,0.1,1.7,0.3s0.6,0.6,0.6,1.1c0,0.3-0.1,0.6-0.2,0.8 s-0.4,0.4-0.6,0.4v0c0.4,0.1,0.6,0.2,0.8,0.5s0.2,0.5,0.2,0.9c0,0.5-0.2,0.9-0.6,1.2S10.4,23,9.8,23H7.5V17.3z M9.1,19.5h0.5 c0.2,0,0.4,0,0.5-0.1s0.2-0.2,0.2-0.4c0-0.3-0.2-0.5-0.7-0.5H9.1V19.5z M9.1,20.6v1.2h0.5c0.5,0,0.7-0.2,0.7-0.6 c0-0.2-0.1-0.3-0.2-0.4s-0.3-0.2-0.6-0.2H9.1z" stroke-linejoin="miter" stroke="none" fill="#000000"></path> <path d="M15.4,23l-1.2-4.1h0c0.1,0.7,0.1,1.2,0.1,1.6V23h-1.4v-5.7H15l1.2,4.1h0l1.2-4.1 h2.1V23H18v-2.5c0-0.1,0-0.3,0-0.4s0-0.5,0.1-1.2h0L16.9,23H15.4z" stroke-linejoin="miter" stroke="none" fill="#000000"></path> <path d="M24.8,19.1c0,0.6-0.2,1.1-0.6,1.5s-0.9,0.5-1.6,0.5h-0.4V23h-1.5v-5.7h2 c0.7,0,1.3,0.2,1.6,0.5S24.8,18.5,24.8,19.1z M22.2,19.8h0.3c0.2,0,0.4-0.1,0.6-0.2s0.2-0.3,0.2-0.5c0-0.4-0.2-0.6-0.6-0.6h-0.4 V19.8z" stroke-linejoin="miter" stroke="none" fill="#000000"></path> <rect x="1" y="13" width="30" height="14"></rect></g></svg>