<svg xmlns="http://www.w3.org/2000/svg" viewBox="0 0 32 32"><title>file doc</title><g stroke-linecap="round" stroke-width="1" fill="none" stroke="#000000" stroke-linejoin="round" class="nc-icon-wrapper" transform="translate(0.5 0.5)"><polyline data-cap="butt" points="20,1 20,9 28,9 "></polyline> <polyline points="28,13 28,9 20,1 4,1 4,13 "></polyline> <polyline points="4,27 4,31 28,31 28,27 "></polyline> <path d="M12.7,20c0,1-0.3,1.7-0.8,2.2S10.7,23,9.7,23H7.9v-5.7h2c0.9,0,1.6,0.2,2.1,0.7 S12.7,19.1,12.7,20z M11.1,20.1c0-0.5-0.1-0.9-0.3-1.2s-0.5-0.4-0.9-0.4H9.4v3.2h0.3c0.5,0,0.8-0.1,1-0.4S11.1,20.6,11.1,20.1z" stroke-linejoin="miter" stroke="none" fill="#000000"></path> <path d="M19.1,20.1c0,1-0.2,1.7-0.7,2.2s-1.2,0.8-2.1,0.8c-0.9,0-1.6-0.3-2.1-0.8 s-0.7-1.2-0.7-2.2c0-1,0.2-1.7,0.7-2.2s1.2-0.8,2.1-0.8c0.9,0,1.6,0.2,2.1,0.7S19.1,19.2,19.1,20.1z M15.2,20.1 c0,1.1,0.4,1.7,1.2,1.7c0.4,0,0.7-0.1,0.9-0.4s0.3-0.7,0.3-1.3c0-0.6-0.1-1-0.3-1.3s-0.5-0.4-0.9-0.4C15.6,18.5,15.2,19,15.2,20.1z" stroke-linejoin="miter" stroke="none" fill="#000000"></path> <path d="M22.7,18.5c-0.4,0-0.7,0.2-0.9,0.5s-0.3,0.7-0.3,1.2c0,1.1,0.4,1.6,1.3,1.6 c0.3,0,0.5,0,0.7-0.1s0.5-0.2,0.7-0.3v1.3c-0.5,0.2-1,0.3-1.6,0.3c-0.9,0-1.5-0.2-2-0.8s-0.7-1.2-0.7-2.2c0-0.6,0.1-1.1,0.3-1.6 s0.5-0.8,1-1s0.9-0.4,1.5-0.4c0.6,0,1.2,0.1,1.8,0.4L24,18.8c-0.2-0.1-0.4-0.2-0.6-0.2S22.9,18.5,22.7,18.5z" stroke-linejoin="miter" stroke="none" fill="#000000"></path> <rect x="1" y="13" width="30" height="14"></rect></g></svg>