<svg xmlns="http://www.w3.org/2000/svg" viewBox="0 0 32 32"><title>file avi</title><g stroke-linecap="round" stroke-width="1" fill="none" stroke="#000000" stroke-linejoin="round" class="nc-icon-wrapper" transform="translate(0.5 0.5)"><polyline data-cap="butt" points="20,1 20,9 28,9 "></polyline> <polyline points="28,13 28,9 20,1 4,1 4,13 "></polyline> <polyline points="4,27 4,31 28,31 28,27 "></polyline> <path d="M13,23l-0.3-1.1h-1.9L10.6,23H8.9l1.9-5.7h2.1l1.9,5.7H13z M12.4,20.7l-0.2-0.9 c-0.1-0.2-0.1-0.5-0.2-0.8s-0.1-0.6-0.2-0.7c0,0.1-0.1,0.4-0.1,0.7s-0.2,0.9-0.5,1.8H12.4z" stroke-linejoin="miter" stroke="none" fill="#000000"></path> <path d="M18.6,17.3h1.7L18.4,23h-1.8l-1.9-5.7h1.7l0.8,2.9c0.2,0.6,0.2,1.1,0.3,1.3 c0-0.2,0.1-0.4,0.1-0.7s0.1-0.5,0.1-0.6L18.6,17.3z" stroke-linejoin="miter" stroke="none" fill="#000000"></path> <path d="M20.9,23v-5.7h1.6V23H20.9z" stroke-linejoin="miter" stroke="none" fill="#000000"></path> <rect x="1" y="13" width="30" height="14"></rect></g></svg>