<svg xmlns="http://www.w3.org/2000/svg" viewBox="0 0 32 32"><title>file mp4</title><g stroke-linecap="round" stroke-width="1" fill="none" stroke="#000000" stroke-linejoin="round" class="nc-icon-wrapper" transform="translate(0.5 0.5)"><polyline data-cap="butt" points="20,1 20,9 28,9 "></polyline> <polyline points="28,13 28,9 20,1 4,1 4,13 "></polyline> <polyline points="4,27 4,31 28,31 28,27 "></polyline> <path d="M10.4,23l-1.2-4.1h0c0.1,0.7,0.1,1.2,0.1,1.6V23H7.9v-5.7h2.1l1.2,4.1h0l1.2-4.1 h2.1V23H13v-2.5c0-0.1,0-0.3,0-0.4s0-0.5,0.1-1.2h0L11.8,23H10.4z" stroke-linejoin="miter" stroke="none" fill="#000000"></path> <path d="M19.8,19.1c0,0.6-0.2,1.1-0.6,1.5s-0.9,0.5-1.6,0.5h-0.4V23h-1.5v-5.7h2 c0.7,0,1.3,0.2,1.6,0.5S19.8,18.5,19.8,19.1z M17.2,19.8h0.3c0.2,0,0.4-0.1,0.6-0.2s0.2-0.3,0.2-0.5c0-0.4-0.2-0.6-0.6-0.6h-0.4 V19.8z" stroke-linejoin="miter" stroke="none" fill="#000000"></path> <path d="M24.6,21.9H24V23h-1.5v-1.1h-2.3v-1.1l2.4-3.5H24v3.5h0.6V21.9z M22.5,20.7v-0.7 c0-0.1,0-0.3,0-0.5s0-0.3,0-0.3h0c-0.1,0.2-0.2,0.4-0.3,0.6l-0.6,0.9H22.5z" stroke-linejoin="miter" stroke="none" fill="#000000"></path> <rect x="1" y="13" width="30" height="14"></rect></g></svg>