<svg xmlns="http://www.w3.org/2000/svg" viewBox="0 0 32 32"><title>file mov</title><g stroke-linecap="round" stroke-width="1" fill="none" stroke="#000000" stroke-linejoin="round" class="nc-icon-wrapper" transform="translate(0.5 0.5)"><polyline data-cap="butt" points="20,1 20,9 28,9 "></polyline> <polyline points="28,13 28,9 20,1 4,1 4,13 "></polyline> <polyline points="4,27 4,31 28,31 28,27 "></polyline> <path d="M9.3,23l-1.2-4.1h0c0.1,0.7,0.1,1.2,0.1,1.6V23H6.8v-5.7h2.1l1.2,4.1h0l1.2-4.1 h2.1V23h-1.4v-2.5c0-0.1,0-0.3,0-0.4s0-0.5,0.1-1.2h0L10.7,23H9.3z" stroke-linejoin="miter" stroke="none" fill="#000000"></path> <path d="M19.9,20.1c0,1-0.2,1.7-0.7,2.2s-1.2,0.8-2.1,0.8c-0.9,0-1.6-0.3-2.1-0.8 s-0.7-1.2-0.7-2.2c0-1,0.2-1.7,0.7-2.2s1.2-0.8,2.1-0.8c0.9,0,1.6,0.2,2.1,0.7S19.9,19.2,19.9,20.1z M15.9,20.1 c0,1.1,0.4,1.7,1.2,1.7c0.4,0,0.7-0.1,0.9-0.4s0.3-0.7,0.3-1.3c0-0.6-0.1-1-0.3-1.3s-0.5-0.4-0.9-0.4C16.3,18.5,15.9,19,15.9,20.1z" stroke-linejoin="miter" stroke="none" fill="#000000"></path> <path d="M24.1,17.3h1.7L24,23h-1.8l-1.9-5.7H22l0.8,2.9c0.2,0.6,0.2,1.1,0.3,1.3 c0-0.2,0.1-0.4,0.1-0.7s0.1-0.5,0.1-0.6L24.1,17.3z" stroke-linejoin="miter" stroke="none" fill="#000000"></path> <rect x="1" y="13" width="30" height="14"></rect></g></svg>