<svg xmlns="http://www.w3.org/2000/svg" viewBox="0 0 32 32"><title>file rar</title><g stroke-linecap="round" stroke-width="1" fill="none" stroke="#000000" stroke-linejoin="round" class="nc-icon-wrapper" transform="translate(0.5 0.5)"><polyline data-cap="butt" points="20,1 20,9 28,9 "></polyline> <polyline points="28,13 28,9 20,1 4,1 4,13 "></polyline> <polyline points="4,27 4,31 28,31 28,27 "></polyline> <path d="M9.8,20.9V23H8.3v-5.7h1.9c1.6,0,2.3,0.6,2.3,1.7c0,0.7-0.3,1.2-1,1.5l1.7,2.5 h-1.8l-1.2-2.1H9.8z M9.8,19.8h0.3c0.5,0,0.8-0.2,0.8-0.7c0-0.4-0.3-0.6-0.8-0.6H9.8V19.8z" stroke-linejoin="miter" stroke="none" fill="#000000"></path> <path d="M17.2,23l-0.3-1.1h-1.9L14.8,23h-1.7l1.9-5.7H17l1.9,5.7H17.2z M16.6,20.7 l-0.2-0.9c-0.1-0.2-0.1-0.5-0.2-0.8S16,18.4,16,18.2c0,0.1-0.1,0.4-0.1,0.7s-0.2,0.9-0.5,1.8H16.6z" stroke-linejoin="miter" stroke="none" fill="#000000"></path> <path d="M21.1,20.9V23h-1.5v-5.7h1.9c1.6,0,2.3,0.6,2.3,1.7c0,0.7-0.3,1.2-1,1.5l1.7,2.5 h-1.8l-1.2-2.1H21.1z M21.1,19.8h0.3c0.5,0,0.8-0.2,0.8-0.7c0-0.4-0.3-0.6-0.8-0.6h-0.3V19.8z" stroke-linejoin="miter" stroke="none" fill="#000000"></path> <rect x="1" y="13" width="30" height="14"></rect></g></svg>