<svg xmlns="http://www.w3.org/2000/svg" viewBox="0 0 32 32"><title>file vvt</title><g stroke-linecap="round" stroke-width="1" fill="none" stroke="#000000" stroke-linejoin="round" class="nc-icon-wrapper" transform="translate(0.5 0.5)"><polyline points="20 1 20 9 28 9" data-cap="butt"></polyline> <polyline points="28 13 28 9 20 1 4 1 4 13"></polyline> <polyline points="4 27 4 31 28 31 28 27"></polyline> <rect x="1" y="13" width="30" height="14"></rect> <path d="M12.227,17.289h1.726L12.082,23H10.266L8.4,17.289h1.735l.777,2.895a8.832,8.832,0,0,1,.266,1.343q.027-.273.109-.683t.145-.645Z" stroke="none" fill="#000000"></path> <path d="M17.777,17.289H19.5L17.633,23H15.816l-1.863-5.711h1.735l.777,2.895a8.665,8.665,0,0,1,.265,1.343q.027-.273.11-.683t.144-.645Z" stroke="none" fill="#000000"></path> <path d="M22.641,23H21.1V18.551H19.7V17.289h4.328v1.262h-1.39Z" stroke="none" fill="#000000"></path></g></svg>