<svg xmlns="http://www.w3.org/2000/svg" viewBox="0 0 32 32"><title>file zip</title><g stroke-linecap="round" stroke-width="1" fill="none" stroke="#000000" stroke-linejoin="round" class="nc-icon-wrapper" transform="translate(0.5 0.5)"><polyline data-cap="butt" points="20,1 20,9 28,9 "></polyline> <polyline points="28,13 28,9 20,1 4,1 4,13 "></polyline> <polyline points="4,27 4,31 28,31 28,27 "></polyline> <path d="M14.3,23H9.9v-1l2.5-3.5H9.9v-1.2h4.3v0.9l-2.5,3.5h2.5V23z" stroke-linejoin="miter" stroke="none" fill="#000000"></path> <path d="M15.1,23v-5.7h1.6V23H15.1z" stroke-linejoin="miter" stroke="none" fill="#000000"></path> <path d="M22.1,19.1c0,0.6-0.2,1.1-0.6,1.5s-0.9,0.5-1.6,0.5h-0.4V23h-1.5v-5.7h2 c0.7,0,1.3,0.2,1.6,0.5S22.1,18.5,22.1,19.1z M19.5,19.8h0.3c0.2,0,0.4-0.1,0.6-0.2s0.2-0.3,0.2-0.5c0-0.4-0.2-0.6-0.6-0.6h-0.4 V19.8z" stroke-linejoin="miter" stroke="none" fill="#000000"></path> <rect x="1" y="13" width="30" height="14"></rect></g></svg>