<svg xmlns="http://www.w3.org/2000/svg" viewBox="0 0 32 32"><title>file cloud</title><g stroke-linecap="round" stroke-width="1" fill="none" stroke="#000000" stroke-linejoin="round" class="nc-icon-wrapper" transform="translate(0.5 0.5)"><rect x="3" y="1" width="26" height="30"></rect> <path d="M21.5,16 c-0.173,0-0.342,0.018-0.505,0.051C20.995,16.034,21,16.018,21,16c0-2.761-2.239-5-5-5s-5,2.239-5,5 c0,0.018,0.005,0.034,0.005,0.051C10.842,16.018,10.673,16,10.5,16C9.119,16,8,17.119,8,18.5c0,1.381,1.119,2.5,2.5,2.5 c0.458,0,10.542,0,11,0c1.381,0,2.5-1.119,2.5-2.5C24,17.119,22.881,16,21.5,16z" stroke="#000000"></path></g></svg>