<svg xmlns="http://www.w3.org/2000/svg" viewBox="0 0 32 32"><title>file epub</title><g stroke-linecap="round" stroke-width="1" fill="none" stroke="#000000" stroke-linejoin="round" class="nc-icon-wrapper" transform="translate(0.5 0.5)"><polyline data-cap="butt" points="20,1 20,9 28,9 "></polyline> <polyline points="28,13 28,9 20,1 4,1 4,13 "></polyline> <polyline points="4,27 4,31 28,31 28,27 "></polyline> <path d="M9.6,23H6.2v-5.7h3.4v1.2H7.7v0.9h1.7v1.2H7.7v1.1h1.8V23z" stroke-linejoin="miter" stroke="none" fill="#000000"></path> <path d="M14.7,19.1c0,0.6-0.2,1.1-0.6,1.5s-0.9,0.5-1.6,0.5h-0.4V23h-1.5v-5.7h2 c0.7,0,1.3,0.2,1.6,0.5S14.7,18.5,14.7,19.1z M12.1,19.8h0.3c0.2,0,0.4-0.1,0.6-0.2s0.2-0.3,0.2-0.5c0-0.4-0.2-0.6-0.6-0.6h-0.4 V19.8z" stroke-linejoin="miter" stroke="none" fill="#000000"></path> <path d="M20.5,17.3v3.4c0,0.7-0.2,1.3-0.6,1.7s-1,0.6-1.8,0.6c-0.8,0-1.4-0.2-1.8-0.6 s-0.6-1-0.6-1.7v-3.5h1.6v3.4c0,0.4,0.1,0.7,0.2,0.9s0.4,0.3,0.7,0.3c0.3,0,0.5-0.1,0.7-0.3s0.2-0.5,0.2-0.9v-3.3H20.5z" stroke-linejoin="miter" stroke="none" fill="#000000"></path> <path d="M21.7,17.3h2c0.8,0,1.4,0.1,1.7,0.3s0.6,0.6,0.6,1.1c0,0.3-0.1,0.6-0.2,0.8 s-0.4,0.4-0.6,0.4v0c0.4,0.1,0.6,0.2,0.8,0.5s0.2,0.5,0.2,0.9c0,0.5-0.2,0.9-0.6,1.2S24.6,23,23.9,23h-2.2V17.3z M23.2,19.5h0.5 c0.2,0,0.4,0,0.5-0.1s0.2-0.2,0.2-0.4c0-0.3-0.2-0.5-0.7-0.5h-0.4V19.5z M23.2,20.6v1.2h0.5c0.5,0,0.7-0.2,0.7-0.6 c0-0.2-0.1-0.3-0.2-0.4s-0.3-0.2-0.6-0.2H23.2z" stroke-linejoin="miter" stroke="none" fill="#000000"></path> <rect x="1" y="13" width="30" height="14"></rect></g></svg>