<svg xmlns="http://www.w3.org/2000/svg" viewBox="0 0 32 32"><title>file xlsx</title><g stroke-linecap="round" stroke-width="1" fill="none" stroke="#000000" stroke-linejoin="round" class="nc-icon-wrapper" transform="translate(0.5 0.5)"><polyline data-cap="butt" points="20,1 20,9 28,9 "></polyline> <polyline points="28,13 28,9 20,1 4,1 4,13 "></polyline> <polyline points="4,27 4,31 28,31 28,27 "></polyline> <path d="M11.3,23H9.6l-1.1-1.8L7.3,23H5.6l1.9-2.9l-1.8-2.8h1.7l1,1.8l1-1.8h1.8l-1.8,2.9 L11.3,23z" stroke-linejoin="miter" stroke="none" fill="#000000"></path> <path d="M12,23v-5.7h1.5v4.5h2.2V23H12z" stroke-linejoin="miter" stroke="none" fill="#000000"></path> <path d="M20.4,21.3c0,0.4-0.1,0.7-0.3,0.9s-0.4,0.5-0.8,0.6s-0.7,0.2-1.2,0.2 c-0.4,0-0.7,0-1-0.1s-0.5-0.1-0.8-0.3v-1.4c0.3,0.2,0.6,0.3,0.9,0.4s0.6,0.1,0.9,0.1c0.2,0,0.4,0,0.5-0.1s0.2-0.2,0.2-0.3 c0-0.1,0-0.1-0.1-0.2s-0.1-0.1-0.2-0.2s-0.3-0.2-0.8-0.4c-0.4-0.2-0.7-0.3-0.8-0.5s-0.3-0.3-0.4-0.5s-0.1-0.4-0.1-0.7 c0-0.5,0.2-0.9,0.6-1.2s0.9-0.4,1.6-0.4c0.6,0,1.2,0.1,1.8,0.4l-0.5,1.2c-0.5-0.2-1-0.4-1.4-0.4c-0.2,0-0.3,0-0.4,0.1 s-0.1,0.2-0.1,0.3c0,0.1,0.1,0.2,0.2,0.3s0.4,0.2,0.9,0.5c0.5,0.2,0.8,0.5,1,0.7S20.4,20.9,20.4,21.3z" stroke-linejoin="miter" stroke="none" fill="#000000"></path> <path d="M26.4,23h-1.8l-1.1-1.8L22.4,23h-1.7l1.9-2.9l-1.8-2.8h1.7l1,1.8l1-1.8h1.8 l-1.8,2.9L26.4,23z" stroke-linejoin="miter" stroke="none" fill="#000000"></path> <rect x="1" y="13" width="30" height="14"></rect></g></svg>