<svg xmlns="http://www.w3.org/2000/svg" viewBox="0 0 32 32"><title>file exe</title><g stroke-linecap="round" stroke-width="1" fill="none" stroke="#000000" stroke-linejoin="round" class="nc-icon-wrapper" transform="translate(0.5 0.5)"><polyline data-cap="butt" points="20,1 20,9 28,9 "></polyline> <polyline points="28,13 28,9 20,1 4,1 4,13 "></polyline> <polyline points="4,27 4,31 28,31 28,27 "></polyline> <path d="M12.7,23H9.3v-5.7h3.4v1.2h-1.8v0.9h1.7v1.2h-1.7v1.1h1.8V23z" stroke-linejoin="miter" stroke="none" fill="#000000"></path> <path d="M18.9,23h-1.8L16,21.2L14.9,23h-1.7l1.9-2.9l-1.8-2.8h1.7l1,1.8l1-1.8h1.8 l-1.8,2.9L18.9,23z" stroke-linejoin="miter" stroke="none" fill="#000000"></path> <path d="M22.9,23h-3.4v-5.7h3.4v1.2h-1.8v0.9h1.7v1.2h-1.7v1.1h1.8V23z" stroke-linejoin="miter" stroke="none" fill="#000000"></path> <rect x="1" y="13" width="30" height="14"></rect></g></svg>