<svg xmlns="http://www.w3.org/2000/svg" viewBox="0 0 32 32"><title>file wav</title><g stroke-linecap="round" stroke-width="1" fill="none" stroke="#000000" stroke-linejoin="round" class="nc-icon-wrapper" transform="translate(0.5 0.5)"><polyline data-cap="butt" points="20,1 20,9 28,9 "></polyline> <polyline points="28,13 28,9 20,1 4,1 4,13 "></polyline> <polyline points="4,27 4,31 28,31 28,27 "></polyline> <path d="M12.9,23h-1.8l-0.5-2.5c0-0.1-0.1-0.3-0.1-0.6s-0.1-0.6-0.1-0.8 c0,0.2-0.1,0.4-0.1,0.6s-0.1,0.5-0.1,0.7S9.9,21.5,9.5,23H7.7l-1.4-5.7h1.5l0.6,2.9c0.1,0.6,0.2,1.1,0.3,1.5c0-0.3,0.1-0.6,0.2-1.1 s0.2-0.8,0.2-1.1l0.5-2.2H11l0.5,2.2c0.1,0.3,0.2,0.7,0.3,1.2s0.1,0.8,0.2,1c0-0.3,0.1-0.8,0.3-1.5l0.6-2.9h1.5L12.9,23z" stroke-linejoin="miter" stroke="none" fill="#000000"></path> <path d="M18.6,23l-0.3-1.1h-1.9L16.2,23h-1.7l1.9-5.7h2.1l1.9,5.7H18.6z M18,20.7l-0.2-0.9 c-0.1-0.2-0.1-0.5-0.2-0.8s-0.1-0.6-0.2-0.7c0,0.1-0.1,0.4-0.1,0.7s-0.2,0.9-0.5,1.8H18z" stroke-linejoin="miter" stroke="none" fill="#000000"></path> <path d="M24.1,17.3h1.7L24,23h-1.8l-1.9-5.7H22l0.8,2.9c0.2,0.6,0.2,1.1,0.3,1.3 c0-0.2,0.1-0.4,0.1-0.7s0.1-0.5,0.1-0.6L24.1,17.3z" stroke-linejoin="miter" stroke="none" fill="#000000"></path> <rect x="1" y="13" width="30" height="14"></rect></g></svg>