<svg xmlns="http://www.w3.org/2000/svg" viewBox="0 0 32 32"><title>file aac</title><g stroke-linecap="round" stroke-width="1" fill="none" stroke="#000000" stroke-linejoin="round" class="nc-icon-wrapper" transform="translate(0.5 0.5)"><polyline data-cap="butt" points="20,1 20,9 28,9 "></polyline> <polyline points="28,13 28,9 20,1 4,1 4,13 "></polyline> <polyline points="4,27 4,31 28,31 28,27 "></polyline> <path d="M11.7,23l-0.3-1.1H9.6L9.3,23H7.6l1.9-5.7h2.1l1.9,5.7H11.7z M11.1,20.7l-0.2-0.9 c-0.1-0.2-0.1-0.5-0.2-0.8s-0.1-0.6-0.2-0.7c0,0.1-0.1,0.4-0.1,0.7s-0.2,0.9-0.5,1.8H11.1z" stroke-linejoin="miter" stroke="none" fill="#000000"></path> <path d="M17.5,23l-0.3-1.1h-1.9L15.1,23h-1.7l1.9-5.7h2.1l1.9,5.7H17.5z M16.9,20.7 l-0.2-0.9c-0.1-0.2-0.1-0.5-0.2-0.8s-0.1-0.6-0.2-0.7c0,0.1-0.1,0.4-0.1,0.7s-0.2,0.9-0.5,1.8H16.9z" stroke-linejoin="miter" stroke="none" fill="#000000"></path> <path d="M22.4,18.5c-0.4,0-0.7,0.2-0.9,0.5s-0.3,0.7-0.3,1.2c0,1.1,0.4,1.6,1.3,1.6 c0.3,0,0.5,0,0.7-0.1s0.5-0.2,0.7-0.3v1.3c-0.5,0.2-1,0.3-1.6,0.3c-0.9,0-1.5-0.2-2-0.8s-0.7-1.2-0.7-2.2c0-0.6,0.1-1.1,0.3-1.6 s0.5-0.8,1-1s0.9-0.4,1.5-0.4c0.6,0,1.2,0.1,1.8,0.4l-0.5,1.2c-0.2-0.1-0.4-0.2-0.6-0.2S22.6,18.5,22.4,18.5z" stroke-linejoin="miter" stroke="none" fill="#000000"></path> <rect x="1" y="13" width="30" height="14"></rect></g></svg>