<svg xmlns="http://www.w3.org/2000/svg" viewBox="0 0 32 32"><title>folder link</title><g stroke-linecap="round" stroke-width="1" fill="none" stroke="#000000" stroke-linejoin="round" class="nc-icon-wrapper" transform="translate(0.5 0.5)"><path d="M28,29H4a3,3,0,0,1-3-3V2H12l3,5H31V26A3,3,0,0,1,28,29Z"></path><path d="M18,14h4a2,2,0,0,1,2,2v4a2,2,0,0,1-2,2H18" stroke="#000000"></path><path d="M14,22H10a2,2,0,0,1-2-2V16a2,2,0,0,1,2-2h4" stroke="#000000"></path><line x1="13" y1="18" x2="19" y2="18" stroke="#000000"></line></g></svg>