<svg xmlns="http://www.w3.org/2000/svg" viewBox="0 0 32 32"><title>folder settings</title><g stroke-linecap="round" stroke-width="1" fill="none" stroke="#000000" stroke-linejoin="round" class="nc-icon-wrapper" transform="translate(0.5 0.5)"><circle cx="16" cy="18" r="4" stroke="#000000"></circle><line x1="16" y1="14" x2="16" y2="12" stroke="#000000"></line><line x1="18.828" y1="15.172" x2="20.243" y2="13.757" stroke="#000000"></line><line x1="20" y1="18" x2="22" y2="18" stroke="#000000"></line><line x1="18.828" y1="20.828" x2="20.243" y2="22.243" stroke="#000000"></line><line x1="16" y1="22" x2="16" y2="24" stroke="#000000"></line><line x1="13.172" y1="20.828" x2="11.757" y2="22.243" stroke="#000000"></line><line x1="12" y1="18" x2="10" y2="18" stroke="#000000"></line><line x1="13.172" y1="15.172" x2="11.757" y2="13.757" stroke="#000000"></line><path d="M28,29H4a3,3,0,0,1-3-3V2H12l3,5H31V26A3,3,0,0,1,28,29Z"></path></g></svg>