<svg xmlns="http://www.w3.org/2000/svg" viewBox="0 0 32 32"><title>raw image</title><g stroke-linecap="round" stroke-width="1" fill="none" stroke="#000000" stroke-linejoin="round" class="nc-icon-wrapper" transform="translate(0.5 0.5)"><path d="M6.878,17.454V20H4.988V13H7.28q2.851,0,2.852,2.067a2.067,2.067,0,0,1-1.187,1.881L10.984,20H8.84L7.356,17.454Zm0-1.421h.354q.991,0,.991-.876,0-.721-.972-.722H6.878Z" stroke="none" fill="#000000"></path><path d="M15.913,20l-.345-1.311H13.3L12.941,20H10.864l2.283-7.024h2.521L17.98,20Zm-.737-2.861-.3-1.149q-.105-.383-.256-.99c-.1-.406-.166-.7-.2-.872-.028.164-.085.431-.169.8s-.272,1.108-.562,2.206Z" stroke="none" fill="#000000"></path><path d="M25.9,20H23.665L23,16.952c-.032-.128-.082-.381-.151-.761s-.118-.7-.15-.952q-.039.31-.125.773c-.057.307-.114.591-.17.849s-.288,1.3-.7,3.139H19.468l-1.732-7H19.56l.76,3.508q.259,1.162.354,1.851.063-.487.223-1.325t.3-1.388L21.813,13h1.751l.6,2.646q.153.637.311,1.469t.21,1.244q.063-.531.34-1.842L25.8,13h1.824Z" stroke="none" fill="#000000"></path><rect x="1" y="7" width="30" height="19" data-cap="butt"></rect></g></svg>