<svg xmlns="http://www.w3.org/2000/svg" viewBox="0 0 32 32"><title>clear data</title><g stroke-linecap="round" stroke-width="1" fill="none" stroke="#000000" stroke-linejoin="round" class="nc-icon-wrapper" transform="translate(0.5 0.5)"><line x1="26.999" y1="2" x2="17.827" y2="13.629"></line><path d="M16,13a3,3,0,0,1,3,3,5.468,5.468,0,0,1-.307,1.336A14.934,14.934,0,0,0,19.387,31H1C1,21.059,6.059,13,16,13Z"></path><line x1="23" y1="20" x2="31" y2="19.999" stroke="#000000"></line><line x1="22" y1="25" x2="31" y2="24.999" stroke="#000000"></line><line x1="23.999" y1="30" x2="31" y2="30" stroke="#000000"></line><path d="M12.276,13.429a4.924,4.924,0,0,0,5.539,6.489" data-cap="butt"></path><path d="M7.28,25a22.034,22.034,0,0,0-.151,6" data-cap="butt"></path><path d="M12.6,25a18.446,18.446,0,0,0,.661,6" data-cap="butt"></path></g></svg>