<svg xmlns="http://www.w3.org/2000/svg" viewBox="0 0 32 32"><title>configuration</title><g stroke-linecap="round" stroke-width="1" fill="none" stroke="#000000" stroke-linejoin="round" class="nc-icon-wrapper" transform="translate(0.5 0.5)"><path data-cap="butt" d="M16,11.4,13.734,9.331A6.487,6.487,0,0,0,5.366,1.366L9,5,5,9,1.366,5.366a6.49,6.49,0,0,0,7.965,8.368L11.2,15.779" stroke="#000000"></path> <path d="M18.642,23.943l5.842,6.4a2,2,0,0,0,2.892.066l3.038-3.038a2,2,0,0,0-.066-2.892L23.6,18.325" stroke="#000000"></path> <path d="M30.634,5.366,27,9,23,5l3.634-3.634a6.49,6.49,0,0,0-8.368,7.965L1.652,24.484a2,2,0,0,0-.066,2.892l3.038,3.038a2,2,0,0,0,2.892-.066L22.669,13.734a6.487,6.487,0,0,0,7.965-8.368Z"></path></g></svg>