<svg xmlns="http://www.w3.org/2000/svg" viewBox="0 0 32 32"><title>configuration tool</title><g stroke-linecap="round" stroke-width="1" fill="none" stroke="#000000" stroke-linejoin="round" class="nc-icon-wrapper" transform="translate(0.5 0.5)"><path d="M22.521,17.521l5.236,5.236a4.242,4.242,0,0,1,0,6h0a4.242,4.242,0,0,1-6,0L17,24" stroke="#000000"></path> <polyline data-cap="butt" points="14.632 12.632 5 3 2 6 11.496 15.496" stroke="#000000"></polyline> <path d="M26.51,15.671l4-4L21.541,2.639a5.7,5.7,0,0,0-8.031.032h0Z"></path> <path data-cap="butt" d="M19.253,8.414l-17.6,16.07a2,2,0,0,0-.066,2.892l2.038,2.038a2,2,0,0,0,2.892-.066L22.565,11.726"></path></g></svg>