<svg xmlns="http://www.w3.org/2000/svg" viewBox="0 0 32 32"><title>lifering</title><g stroke-linecap="round" stroke-width="1" fill="none" stroke="#000000" stroke-linejoin="round" class="nc-icon-wrapper" transform="translate(0.5 0.5)"><path data-cap="butt" d="M13,29.678 C7.676,28.516,3.485,24.324,2.322,19"></path> <path data-cap="butt" d="M29.678,19 C28.515,24.324,24.324,28.516,19,29.678"></path> <path data-cap="butt" d="M19,2.322 C24.324,3.484,28.515,7.676,29.678,13"></path> <path data-cap="butt" d="M2.322,13 C3.485,7.676,7.676,3.484,13,2.322"></path> <polyline data-cap="butt" points="13,9.674 13,1 19,1 19,9.674 " stroke="#000000"></polyline> <polyline data-cap="butt" points="22.326,13 31,13 31,19 22.326,19 " stroke="#000000"></polyline> <polyline data-cap="butt" points="19,22.326 19,31 13,31 13,22.326 " stroke="#000000"></polyline> <polyline data-cap="butt" points="9.674,19 1,19 1,13 9.674,13 " stroke="#000000"></polyline> <circle cx="16" cy="16" r="7"></circle></g></svg>