<svg xmlns="http://www.w3.org/2000/svg" viewBox="0 0 32 32"><title>link</title><g stroke-linecap="round" stroke-width="1" fill="none" stroke="#000000" stroke-linejoin="round" class="nc-icon-wrapper" transform="translate(0.5 0.5)"><path d="M16,20.644A6.968,6.968,0,0,1,13.1,18.9h0a7,7,0,0,1,0-9.9l4.95-4.95a7,7,0,0,1,9.9,0h0a7,7,0,0,1,0,9.9L24.9,17"></path> <path d="M16,11.356A6.968,6.968,0,0,1,18.9,13.1h0a7,7,0,0,1,0,9.9l-4.95,4.95a7,7,0,0,1-9.9,0h0a7,7,0,0,1,0-9.9L7.1,15" stroke="#000000"></path></g></svg>