<svg xmlns="http://www.w3.org/2000/svg" viewBox="0 0 32 32"><title>progress 2</title><g stroke-linecap="round" stroke-width="1" fill="none" stroke="#000000" stroke-linejoin="round" class="nc-icon-wrapper" transform="translate(0.5 0.5)"><path d="M16,1a15,15,0,0,1,0,30"></path><path d="M1.063,17.245C1.029,16.833,1,16.42,1,16s.029-.833.063-1.245" stroke="#000000"></path><path d="M8.148,3.237A14.969,14.969,0,0,1,10.365,2.1" stroke="#000000"></path><path d="M2.622,9.242A15.051,15.051,0,0,1,3.928,7.123" stroke="#000000"></path><path d="M3.9,24.84a14.875,14.875,0,0,1-1.3-2.128" stroke="#000000"></path><path d="M8.123,28.748a14.869,14.869,0,0,0,2.222,1.14" stroke="#000000"></path><polyline points="9 17 13 21 23 11"></polyline></g></svg>