<svg xmlns="http://www.w3.org/2000/svg" viewBox="0 0 32 32"><title>spaceship</title><g stroke-linecap="round" stroke-width="1" fill="none" stroke="#000000" stroke-linejoin="round" class="nc-icon-wrapper" transform="translate(0.5 0.5)"><line data-cap="butt" x1="20.456" y1="3.723" x2="28.246" y2="11.513"></line> <path data-cap="butt" d="M17.3,5.371C12.75,3.723,8,4.708,4,10l4.164,4.174"></path> <path data-cap="butt" d="M17.826,23.836,22,28c5.292-4,6.277-8.75,4.629-13.3"></path> <path d="M14,26,6,18S12.493,2.292,30.656,1.344C29.629,19.429,14,26,14,26Z"></path> <circle cx="18.5" cy="13.5" r="2.5" stroke="#000000"></circle> <path d="M2.879,24.879a3,3,0,0,1,4.242,4.242c-1.171,1.172-5.949,1.707-5.949,1.707S1.707,26.05,2.879,24.879Z" stroke="#000000"></path></g></svg>