<svg xmlns="http://www.w3.org/2000/svg" viewBox="0 0 32 32"><title>switches</title><g stroke-linecap="round" stroke-width="1" fill="none" stroke="#000000" stroke-linejoin="round" class="nc-icon-wrapper" transform="translate(0.5 0.5)"><path d="M22.5,14H9.5A6.487,6.487,0,0,1,3,7.5H3A6.487,6.487,0,0,1,9.5,1h13A6.487,6.487,0,0,1,29,7.5h0A6.487,6.487,0,0,1,22.5,14Z"></path> <path d="M22.5,31H9.5A6.487,6.487,0,0,1,3,24.5H3A6.487,6.487,0,0,1,9.5,18h13A6.487,6.487,0,0,1,29,24.5h0A6.487,6.487,0,0,1,22.5,31Z"></path> <circle cx="9.5" cy="7.5" r="2.5" stroke="#000000"></circle> <circle cx="22.5" cy="24.5" r="2.5" stroke="#000000"></circle></g></svg>