<svg xmlns="http://www.w3.org/2000/svg" viewBox="0 0 32 32"><title>unlink</title><g stroke-linecap="round" stroke-width="1" fill="none" stroke="#000000" stroke-linejoin="round" class="nc-icon-wrapper" transform="translate(0.5 0.5)"><path d="M10,15.724a5.632,5.632,0,0,0-3.343,1.619l-3,3a5.657,5.657,0,0,0,0,8h0a5.657,5.657,0,0,0,8,0l3-3A5.632,5.632,0,0,0,16.276,22"></path> <line x1="10" y1="22" x2="13" y2="19" stroke="#000000"></line> <path d="M22,16.276a5.632,5.632,0,0,0,3.343-1.619l3-3a5.657,5.657,0,0,0,0-8h0a5.657,5.657,0,0,0-8,0l-3,3A5.632,5.632,0,0,0,15.724,10"></path> <line x1="19" y1="13" x2="22" y2="10" stroke="#000000"></line> <line x1="3" y1="3" x2="29" y2="29" stroke="#000000"></line></g></svg>