<svg xmlns="http://www.w3.org/2000/svg" viewBox="0 0 32 32"><title>virtual assistant 2</title><g stroke-linecap="round" stroke-width="1" fill="none" stroke="#000000" stroke-linejoin="round" class="nc-icon-wrapper" transform="translate(0.5 0.5)"><circle cx="11" cy="16" r="3"></circle><path d="M17,28V25.017a2,2,0,0,0-.983-1.725A9.8,9.8,0,0,0,11,22a9.716,9.716,0,0,0-5.026,1.288A2,2,0,0,0,5,25.007V28"></path><polyline points="13 7 1 7 1 28 28 28 28 16"></polyline><path d="M17,4V9a3,3,0,0,0,3,3h0v3l5-3h3a3,3,0,0,0,3-3V4a3,3,0,0,0-3-3H20A3,3,0,0,0,17,4Z" stroke="#000000"></path></g></svg>