<svg xmlns="http://www.w3.org/2000/svg" viewBox="0 0 32 32"><title>web link</title><g stroke-linecap="round" stroke-width="1" fill="none" stroke="#000000" stroke-linejoin="round" class="nc-icon-wrapper" transform="translate(0.5 0.5)"><path d="M14.828,12.172l-.585-.586a2,2,0,0,1,0-2.829l6.171-6.171a2,2,0,0,1,2.829,0l6.171,6.171a2,2,0,0,1,0,2.829l-6.171,6.171a2,2,0,0,1-2.829,0l-.586-.585"></path> <path d="M17.172,19.828l.585.586a2,2,0,0,1,0,2.829l-6.171,6.171a2,2,0,0,1-2.829,0L2.586,23.243a2,2,0,0,1,0-2.829l6.171-6.171a2,2,0,0,1,2.829,0l.586.585"></path> <line x1="11" y1="21" x2="21" y2="11" stroke="#000000"></line></g></svg>