<svg xmlns="http://www.w3.org/2000/svg" viewBox="0 0 32 32"><title>web hyperlink</title><g stroke-linecap="round" stroke-width="1" fill="none" stroke="#000000" stroke-linejoin="round" class="nc-icon-wrapper" transform="translate(0.5 0.5)"><path d="M3.998,19.583 C2.233,18.811,1,17.049,1,15V9c0-2.761,2.239-5,5-5h13c2.761,0,5,2.239,5,5v6c0,2.761-2.239,5-5,5h-7"></path> <path d=" M28.002,12.417C29.767,13.189,31,14.951,31,17v6c0,2.761-2.239,5-5,5H13c-2.761,0-5-2.239-5-5v-6c0-2.761,2.239-5,5-5h7" stroke="#000000"></path></g></svg>