<svg xmlns="http://www.w3.org/2000/svg" viewBox="0 0 32 32"><title>wrench</title><g stroke-linecap="round" stroke-width="1" fill="none" stroke="#000000" stroke-linejoin="round" class="nc-icon-wrapper" transform="translate(0.5 0.5)"><path d="M15.426,11.774,2.565,22.935a4.568,4.568,0,0,0-.2,6.7h0a4.568,4.568,0,0,0,6.7-.2L20.226,16.574a6.574,6.574,0,0,0,3.7.2,7.347,7.347,0,0,0,5.9-5.9,6.574,6.574,0,0,0-.2-3.7l-4,4-4.8-4.8,4-4a6.574,6.574,0,0,0-3.7-.2,7.606,7.606,0,0,0-5.9,5.9A9.161,9.161,0,0,0,15.426,11.774Z"></path></g></svg>