<svg xmlns="http://www.w3.org/2000/svg" viewBox="0 0 32 32"><title>a heart</title><g stroke-linecap="round" stroke-width="1" fill="none" stroke="#000000" stroke-linejoin="round" class="nc-icon-wrapper" transform="translate(0.5 0.5)"><path d="M15,20.012 C14.674,20.004,14.341,20,14,20c-5.57,0-9.247,1.165-11.227,2.043C1.69,22.524,1,23.598,1,24.783V30h17"></path> <path d="M7,8c0-3.866,3.134-7,7-7 s7,3.134,7,7s-3.134,8-7,8S7,11.866,7,8z"></path> <path d=" M30.041,19.992c-1.46-1.511-3.895-1.264-5.041,0.523c-1.147-1.789-3.583-2.032-5.041-0.523c-1.278,1.323-1.278,3.467,0,4.79 L24.999,30l5.042-5.218C31.32,23.459,31.32,21.315,30.041,19.992z" stroke="#000000"></path></g></svg>