<svg xmlns="http://www.w3.org/2000/svg" viewBox="0 0 32 32"><title>a location</title><g stroke-linecap="round" stroke-width="1" fill="none" stroke="#000000" stroke-linejoin="round" class="nc-icon-wrapper" transform="translate(0.5 0.5)"><path d="M16,20.05 C15.363,20.018,14.697,20,14,20c-5.57,0-9.247,1.165-11.227,2.043C1.69,22.524,1,23.598,1,24.783V30h18"></path> <path d="M7,8c0-3.866,3.134-7,7-7 s7,3.134,7,7s-3.134,8-7,8S7,11.866,7,8z"></path> <circle cx="26" cy="22" r="1" stroke-linejoin="miter" stroke="none" fill="#000000"></circle> <path stroke="#000000" d="M21,22 c0-2.761,2.239-5,5-5s5,2.239,5,5c0,3.062-5,8-5,8S21,25.062,21,22z"></path></g></svg>