<svg xmlns="http://www.w3.org/2000/svg" viewBox="0 0 32 32"><title>a security</title><g stroke-linecap="round" stroke-width="1" fill="none" stroke="#000000" stroke-linejoin="round" class="nc-icon-wrapper" transform="translate(0.5 0.5)"><path d="M17,20.115 C16.07,20.042,15.071,20,14,20c-5.57,0-9.247,1.165-11.227,2.043C1.69,22.524,1,23.598,1,24.783V30h15"></path> <path d="M7,8c0-3.866,3.134-7,7-7 s7,3.134,7,7s-3.134,8-7,8S7,11.866,7,8z"></path> <rect x="21" y="24" width="10" height="7" stroke="#000000"></rect> <path d="M23,24v-3 c0-1.657,1.343-3,3-3h0c1.657,0,3,1.343,3,3v3" stroke="#000000"></path></g></svg>