<svg xmlns="http://www.w3.org/2000/svg" viewBox="0 0 32 32"><title>a share</title><g stroke-linecap="round" stroke-width="1" fill="none" stroke="#000000" stroke-linejoin="round" class="nc-icon-wrapper" transform="translate(0.5 0.5)"><path d="M17,20.115 C16.07,20.042,15.071,20,14,20c-5.57,0-9.247,1.165-11.227,2.043C1.69,22.524,1,23.598,1,24.783V30h18"></path> <path d="M7,8c0-3.866,3.134-7,7-7 s7,3.134,7,7s-3.134,8-7,8S7,11.866,7,8z"></path> <line data-cap="butt" x1="23.626" y1="26.162" x2="27.233" y2="28.067" stroke="#000000"></line> <line data-cap="butt" x1="23.626" y1="23.838" x2="27.233" y2="21.933" stroke="#000000"></line> <circle cx="22" cy="25" r="2" stroke="#000000"></circle> <circle cx="29" cy="21" r="2" stroke="#000000"></circle> <circle cx="29" cy="29" r="2" stroke="#000000"></circle></g></svg>