<svg xmlns="http://www.w3.org/2000/svg" viewBox="0 0 32 32"><title>a sync</title><g stroke-linecap="round" stroke-width="1" fill="none" stroke="#000000" stroke-linejoin="round" class="nc-icon-wrapper" transform="translate(0.5 0.5)"><path d="M16,20.05 C15.363,20.018,14.697,20,14,20c-5.57,0-9.247,1.165-11.227,2.043C1.69,22.524,1,23.598,1,24.783V30h15"></path> <path d="M7,8c0-3.866,3.134-7,7-7 s7,3.134,7,7s-3.134,8-7,8S7,11.866,7,8z"></path> <path data-cap="butt" stroke="#000000" d="M29.5,20.437 C28.599,19.557,27.36,19,26,19c-2.761,0-5,2.239-5,5"></path> <path data-cap="butt" stroke="#000000" d="M22.486,28.553 C23.388,29.433,24.64,30,26,30c2.761,0,5-2.239,5-5"></path> <polygon points="32,17.834 32,23 27,23 " stroke-linejoin="miter" stroke="none" fill="#000000"></polygon> <polygon points="20,31.166 20,26 25,26 " stroke-linejoin="miter" stroke="none" fill="#000000"></polygon></g></svg>