<svg xmlns="http://www.w3.org/2000/svg" viewBox="0 0 32 32"><title>b location</title><g stroke-linecap="round" stroke-width="1" fill="none" stroke="#000000" stroke-linejoin="round" class="nc-icon-wrapper" transform="translate(0.5 0.5)"><circle cx="25" cy="18" r="3"></circle> <circle cx="7" cy="18" r="3"></circle> <path d="M13,30v-2.983 c0-0.71-0.372-1.363-0.983-1.725C11.044,24.717,9.358,24,7,24c-2.388,0-4.064,0.713-5.026,1.288C1.368,25.65,1,26.301,1,27.007V30 H13z"></path> <path d="M31,30v-2.983 c0-0.71-0.372-1.363-0.983-1.725C29.044,24.717,27.358,24,25,24c-2.388,0-4.064,0.713-5.026,1.288C19.368,25.65,19,26.301,19,27.007 V30H31z"></path> <circle cx="16" cy="7" r="1" stroke-linejoin="miter" stroke="none" fill="#000000"></circle> <path stroke="#000000" d="M11,7 c0-2.761,2.239-5,5-5s5,2.239,5,5c0,3.062-5,8-5,8S11,10.062,11,7z"></path></g></svg>