<svg xmlns="http://www.w3.org/2000/svg" viewBox="0 0 32 32"><title>b security</title><g stroke-linecap="round" stroke-width="1" fill="none" stroke="#000000" stroke-linejoin="round" class="nc-icon-wrapper" transform="translate(0.5 0.5)"><rect x="11" y="7" width="10" height="6" stroke="#000000"></rect> <path d="M13,7V4 c0-1.657,1.343-3,3-3h0c1.657,0,3,1.343,3,3v3" stroke="#000000"></path> <circle cx="25" cy="19" r="3"></circle> <circle cx="7" cy="19" r="3"></circle> <path d="M13,31v-2.983 c0-0.71-0.372-1.363-0.983-1.725C11.044,25.717,9.358,25,7,25c-2.388,0-4.064,0.713-5.026,1.288C1.368,26.65,1,27.301,1,28.007V31 H13z"></path> <path d="M31,31v-2.983 c0-0.71-0.372-1.363-0.983-1.725C29.044,25.717,27.358,25,25,25c-2.388,0-4.064,0.713-5.026,1.288C19.368,26.65,19,27.301,19,28.007 V31H31z"></path></g></svg>