<svg xmlns="http://www.w3.org/2000/svg" viewBox="0 0 32 32"><title>child</title><g stroke-linecap="round" stroke-width="1" fill="none" stroke="#000000" stroke-linejoin="round" class="nc-icon-wrapper" transform="translate(0.5 0.5)"><path d="M28,12a2.95,2.95,0,0,0-.668.081,11.986,11.986,0,0,0-22.664,0A2.95,2.95,0,0,0,4,12a3,3,0,0,0,0,6c.061,0,.117-.014.177-.018a11.986,11.986,0,0,0,23.646,0c.06,0,.116.018.177.018a3,3,0,0,0,0-6Z"></path><circle cx="11" cy="14" r="1" stroke="#000000"></circle><circle cx="21" cy="14" r="1" stroke="#000000"></circle><path data-cap="butt" d="M16,4a3,3,0,1,0,2.121,5.121"></path><path d="M16,23a4,4,0,0,0,4-4H12A4,4,0,0,0,16,23Z" stroke="#000000"></path></g></svg>