<svg xmlns="http://www.w3.org/2000/svg" viewBox="0 0 32 32"><title>circle 09</title><g stroke-linecap="round" stroke-width="1" fill="none" stroke="#000000" stroke-linejoin="round" class="nc-icon-wrapper" transform="translate(0.5 0.5)"><path data-cap="butt" d="M25.53,27.583 c-0.185-3.257-2.042-4.29-4.758-5.195c-1.942-0.647-2.567-2.609-2.768-3.806" stroke="#000000"></path> <path data-cap="butt" d="M13.993,18.581 c-0.201,1.197-0.824,3.16-2.765,3.808c-2.716,0.905-4.59,1.925-4.774,5.182" stroke="#000000"></path> <path d="M16,19L16,19 c-2.761,0-5-2.239-5-5v-2c0-2.761,2.239-5,5-5h0c2.761,0,5,2.239,5,5v2C21,16.761,18.761,19,16,19z" stroke="#000000"></path> <ellipse transform="matrix(0.0474 -0.9989 0.9989 0.0474 -0.7397 31.2244)" cx="16" cy="16" rx="15" ry="15"></ellipse></g></svg>