<svg xmlns="http://www.w3.org/2000/svg" viewBox="0 0 32 32"><title>contact</title><g stroke-linecap="round" stroke-width="1" fill="none" stroke="#000000" stroke-linejoin="round" class="nc-icon-wrapper" transform="translate(0.5 0.5)"><path data-cap="butt" d="M13.065,17.357 c-0.29,1.708-1.2,4.531-4.065,5.461C4.8,24.182,2,25.716,2,31h28c0-5.284-2.8-6.818-7-8.182c-2.867-0.931-3.776-3.754-4.065-5.461" stroke="#000000"></path> <path d="M16,18L16,18 c-3.866,0-7-3.134-7-7V8c0-3.866,3.134-7,7-7h0c3.866,0,7,3.134,7,7v3C23,14.866,19.866,18,16,18z"></path></g></svg>