<svg xmlns="http://www.w3.org/2000/svg" viewBox="0 0 32 32"><title>contacts 45</title><g stroke-linecap="round" stroke-width="1" fill="none" stroke="#000000" stroke-linejoin="round" class="nc-icon-wrapper" transform="translate(0.5 0.5)"><line x1="1" y1="25" x2="7" y2="25" stroke="#000000"></line> <line x1="12" y1="7" x2="1" y2="7" stroke="#000000"></line> <line x1="12" y1="13" x2="1" y2="13" stroke="#000000"></line> <line x1="7" y1="19" x2="1" y2="19" stroke="#000000"></line> <path d="M13,29h18v-6.242 c0-1.775-1.164-3.334-2.866-3.838C26.54,18.448,24.396,18,22,18c-2.356,0-4.514,0.456-6.125,0.932C14.17,19.436,13,20.994,13,22.773 V29z"></path> <path d="M27,8c0-2.761-2.239-5-5-5 s-5,2.239-5,5s2.239,6,5,6S27,10.761,27,8z"></path></g></svg>