<svg xmlns="http://www.w3.org/2000/svg" viewBox="0 0 32 32"><title>contacts 44</title><g stroke-linecap="round" stroke-width="1" fill="none" stroke="#000000" stroke-linejoin="round" class="nc-icon-wrapper" transform="translate(0.5 0.5)"><line x1="20" y1="7" x2="31" y2="7" stroke="#000000"></line> <line x1="20" y1="13" x2="31" y2="13" stroke="#000000"></line> <line x1="25" y1="19" x2="31" y2="19" stroke="#000000"></line> <line x1="25" y1="25" x2="31" y2="25" stroke="#000000"></line> <path d="M19,29H1v-6.242 c0-1.775,1.164-3.334,2.866-3.838C5.46,18.448,7.604,18,10,18c2.356,0,4.514,0.456,6.125,0.932C17.83,19.436,19,20.994,19,22.773V29 z"></path> <path d="M5,8c0-2.761,2.239-5,5-5 s5,2.239,5,5s-2.239,6-5,6S5,10.761,5,8z"></path></g></svg>