<svg xmlns="http://www.w3.org/2000/svg" viewBox="0 0 32 32"><title>delete 28</title><g stroke-linecap="round" stroke-width="1" fill="none" stroke="#000000" stroke-linejoin="round" class="nc-icon-wrapper" transform="translate(0.5 0.5)"><path d="M31,26.249 c0-1.603-0.945-3.062-2.423-3.679C26.726,21.797,23.683,21,19,21s-7.726,0.797-9.577,1.57C7.945,23.187,7,24.646,7,26.249V31h24 V26.249z"></path> <path d="M19,17L19,17 c-3.866,0-7-3.134-7-7V8c0-3.866,3.134-7,7-7h0c3.866,0,7,3.134,7,7v2C26,13.866,22.866,17,19,17z"></path> <line x1="1" y1="16" x2="9" y2="16" stroke="#000000"></line></g></svg>