<svg xmlns="http://www.w3.org/2000/svg" viewBox="0 0 32 32"><title>diaper changing area</title><g stroke-linecap="round" stroke-width="1" fill="none" stroke="#000000" stroke-linejoin="round" class="nc-icon-wrapper" transform="translate(0.5 0.5)"><path d="M2,6l6.105,3.49a1,1,0,0,1,.357,1.39L4.406,17.5l0,0a3,3,0,0,0-.391,1.779A3.1,3.1,0,0,0,7.151,22H17a3,3,0,0,0,3-3V8"></path><circle cx="27.5" cy="18.5" r="3.5"></circle><line x1="1" y1="27" x2="31" y2="27" stroke="#000000"></line><path d="M4,19a3,3,0,0,1,3-3H17a3,3,0,0,1,3,3" data-cap="butt"></path></g></svg>