<svg xmlns="http://www.w3.org/2000/svg" viewBox="0 0 32 32"><title>doctor</title><g stroke-linecap="round" stroke-width="1" fill="none" stroke="#000000" stroke-linejoin="round" class="nc-icon-wrapper" transform="translate(0.5 0.5)"><path d="M24,8.507V12a8,8,0,0,1-8,8h0a8,8,0,0,1-8-8V8.507" data-cap="butt"></path><path d="M8.5,21,3.514,22.994A4,4,0,0,0,1,26.708V31H31V26.708a4,4,0,0,0-2.514-3.714L23.5,21"></path><line x1="20" y1="27" x2="25" y2="27" stroke="#000000"></line><path d="M23.226,15.416A15.528,15.528,0,0,0,16,13a15.528,15.528,0,0,0-7.226,2.416" data-cap="butt"></path><path d="M8,2.507a21.988,21.988,0,0,1,16,0v6a21.988,21.988,0,0,0-16,0Z" stroke="#000000"></path></g></svg>