<svg xmlns="http://www.w3.org/2000/svg" viewBox="0 0 32 32"><title>exchange</title><g stroke-linecap="round" stroke-width="1" fill="none" stroke="#000000" stroke-linejoin="round" class="nc-icon-wrapper" transform="translate(0.5 0.5)"><polyline data-cap="butt" points="17,6 27,6 27,13 " stroke="#000000"></polyline> <polyline points=" 21,2 17,6 21,10 " stroke="#000000"></polyline> <polyline data-cap="butt" points="15,26 5,26 5,19 " stroke="#000000"></polyline> <polyline points=" 11,30 15,26 11,22 " stroke="#000000"></polyline> <path d="M13,14v-0.983 c0-0.71-0.372-1.363-0.983-1.725C11.044,10.717,9.358,10,7,10c-2.388,0-4.064,0.713-5.026,1.288C1.368,11.65,1,12.301,1,13.007V14 H13z"></path> <circle cx="7" cy="4" r="3"></circle> <path d="M31,31v-0.983 c0-0.71-0.372-1.363-0.983-1.725C29.044,27.717,27.358,27,25,27c-2.388,0-4.064,0.713-5.026,1.288C19.368,28.65,19,29.301,19,30.007 V31H31z"></path> <circle cx="25" cy="21" r="3"></circle></g></svg>