<svg xmlns="http://www.w3.org/2000/svg" viewBox="0 0 32 32"><title>face woman</title><g stroke-linecap="round" stroke-width="1" fill="none" stroke="#000000" stroke-linejoin="round" class="nc-icon-wrapper" transform="translate(0.5 0.5)"><circle fill="#000000" cx="11.5" cy="17.5" r="1.5" stroke-linejoin="miter" stroke="none"></circle> <circle fill="#000000" cx="20.5" cy="17.5" r="1.5" stroke-linejoin="miter" stroke="none"></circle> <path stroke="#000000" d="M16,1 C7.716,1,1,7.716,1,16v11c0,0,4,4,15,4s15-4,15-4V16C31,7.716,24.284,1,16,1z"></path> <path d="M20.869,6.148 C18.126,9.701,13.837,12,9,12c-1.068,0-2.108-0.116-3.113-0.328C5.317,13.001,5,14.463,5,16c0,6.075,4.925,11,11,11s11-4.925,11-11 C27,11.676,24.499,7.945,20.869,6.148z"></path></g></svg>