<svg xmlns="http://www.w3.org/2000/svg" viewBox="0 0 32 32"><title>family roof</title><g stroke-linecap="round" stroke-width="1" fill="none" stroke="#000000" stroke-linejoin="round" class="nc-icon-wrapper" transform="translate(0.5 0.5)"><polyline data-cap="butt" points="1,11 16,3 31,11 " stroke="#000000"></polyline> <circle cx="25" cy="18" r="3"></circle> <circle cx="7" cy="18" r="3"></circle> <path d="M13,28v-0.983 c0-0.71-0.372-1.363-0.983-1.725C11.044,24.717,9.358,24,7,24c-2.388,0-4.064,0.713-5.026,1.288C1.368,25.65,1,26.301,1,27.007V28 H13z"></path> <path d="M31,28v-0.983 c0-0.71-0.372-1.363-0.983-1.725C29.044,24.717,27.358,24,25,24c-2.388,0-4.064,0.713-5.026,1.288C19.368,25.65,19,26.301,19,27.007 V28H31z"></path></g></svg>