<svg xmlns="http://www.w3.org/2000/svg" viewBox="0 0 32 32"><title>family</title><g stroke-linecap="round" stroke-width="1" fill="none" stroke="#000000" stroke-linejoin="round" class="nc-icon-wrapper" transform="translate(0.5 0.5)"><circle cx="16" cy="20" r="3" stroke="#000000"></circle><circle cx="8.5" cy="4.5" r="3.5"></circle><polyline points="12 31 12 26 20 26 20 31" stroke="#000000"></polyline><line x1="6" y1="22" x2="12" y2="26" stroke="#000000"></line><line x1="26" y1="22" x2="20" y2="26" stroke="#000000"></line><path d="M1,25V17a6,6,0,0,1,6-6h3a5.977,5.977,0,0,1,4,1.528"></path><circle cx="23.5" cy="4.5" r="3.5"></circle><path d="M31,25V17a6,6,0,0,0-6-6H22a5.977,5.977,0,0,0-4,1.528"></path></g></svg>