<svg xmlns="http://www.w3.org/2000/svg" viewBox="0 0 32 32"><title>focus</title><g stroke-linecap="round" stroke-width="1" fill="none" stroke="#000000" stroke-linejoin="round" class="nc-icon-wrapper" transform="translate(0.5 0.5)"><path d="M25,26H7v-2.242 c0-1.775,1.164-3.334,2.866-3.838C11.46,19.448,13.604,19,16,19c2.356,0,4.514,0.456,6.125,0.932C23.83,20.436,25,21.994,25,23.773 V26z"></path> <path d="M11,9c0-2.761,2.239-5,5-5 s5,2.239,5,5s-2.239,6-5,6S11,11.761,11,9z"></path> <polyline points=" 1,7 1,1 7,1 " stroke="#000000"></polyline> <polyline points=" 25,1 31,1 31,7 " stroke="#000000"></polyline> <polyline points=" 1,25 1,31 7,31 " stroke="#000000"></polyline> <polyline points=" 25,31 31,31 31,25 " stroke="#000000"></polyline></g></svg>