<svg xmlns="http://www.w3.org/2000/svg" viewBox="0 0 32 32"><title>hacker</title><g stroke-linecap="round" stroke-width="1" fill="none" stroke="#000000" stroke-linejoin="round" class="nc-icon-wrapper" transform="translate(0.5 0.5)"><path d="M11,16A10.82,10.82,0,0,1,8,9c0-3,5-8,8-8s8,5,8,8a10.82,10.82,0,0,1-3,7"></path><rect x="8" y="20" width="16" height="11" stroke="#000000"></rect><path d="M9.11,13.335,4.987,16.292a4,4,0,0,0-1.414,1.846l-1.8,4.81a4,4,0,0,0,.545,3.8L4,29" data-cap="butt"></path><path d="M22.889,13.335l4.124,2.957a4,4,0,0,1,1.414,1.846l1.8,4.809a4,4,0,0,1-.546,3.805L28,29" data-cap="butt"></path><path d="M16,15c2,0,4-3,4-6L17.789,7.894a4,4,0,0,0-3.578,0L12,9C12,12,14,15,16,15Z"></path></g></svg>