<svg xmlns="http://www.w3.org/2000/svg" viewBox="0 0 32 32"><title>man 23</title><g stroke-linecap="round" stroke-width="1" fill="none" stroke="#000000" stroke-linejoin="round" class="nc-icon-wrapper" transform="translate(0.5 0.5)"><path fill-rule="evenodd" clip-rule="evenodd" d=" M26.588,23.518l-5.177-1.035C20.009,22.202,19,20.971,19,19.541v-1.414c2.363-1.414,4-4.336,4-7.127V7.074 c0-1.925-1.568-3.5-3.501-3.5h-0.436l-0.919-1.837c-0.222-0.444-0.755-0.643-1.201-0.465l-5.505,2.202C10.09,4.013,9,5.625,9,7.076 V11c0,2.791,1.637,5.713,4,7.127v1.414c0,1.43-1.009,2.661-2.412,2.942l-5.177,1.035C4.009,23.798,3,25.029,3,26.459V31h26v-4.541 C29,25.029,27.991,23.798,26.588,23.518z"></path></g></svg>