<svg xmlns="http://www.w3.org/2000/svg" viewBox="0 0 32 32"><title>man glasses</title><g stroke-linecap="round" stroke-width="1" fill="none" stroke="#000000" stroke-linejoin="round" class="nc-icon-wrapper" transform="translate(0.5 0.5)"><path data-cap="butt" d="M27.839,20 C26.899,25.853,21.956,31,16,31h0c-5.956,0-10.899-5.147-11.839-11"></path> <path data-cap="butt" d="M4.166,11C5.118,5.325,10.054,1,16,1h0 c5.946,0,10.882,4.324,11.834,10"></path> <line x1="14" y1="24" x2="18" y2="24"></line> <path d="M10,20H4 c-1.105,0-2-0.895-2-2v-5c0-1.105,0.895-2,2-2h8c1.105,0,2,0.895,2,2v3C14,18.209,12.209,20,10,20z" stroke="#000000"></path> <path d="M22,20h6 c1.105,0,2-0.895,2-2v-5c0-1.105-0.895-2-2-2h-8c-1.105,0-2,0.895-2,2v3C18,18.209,19.791,20,22,20z" stroke="#000000"></path> <line x1="14" y1="14" x2="18" y2="14" stroke="#000000"></line></g></svg>