<svg xmlns="http://www.w3.org/2000/svg" viewBox="0 0 32 32"><title>meeting</title><g stroke-linecap="round" stroke-width="1" fill="none" stroke="#000000" stroke-linejoin="round" class="nc-icon-wrapper" transform="translate(0.5 0.5)"><circle cx="25" cy="21" r="3"></circle> <circle cx="7" cy="21" r="3"></circle> <path d="M22,14 v-0.983c0-0.71-0.372-1.363-0.983-1.725C20.044,10.717,18.358,10,16,10c-2.388,0-4.064,0.713-5.026,1.288 C10.368,11.65,10,12.301,10,13.007V14H22z" stroke="#000000"></path> <path d="M13,31v-0.983 c0-0.71-0.372-1.363-0.983-1.725C11.044,27.717,9.358,27,7,27c-2.388,0-4.064,0.713-5.026,1.288C1.368,28.65,1,29.301,1,30.007V31 H13z"></path> <path d="M31,31v-0.983 c0-0.71-0.372-1.363-0.983-1.725C29.044,27.717,27.358,27,25,27c-2.388,0-4.064,0.713-5.026,1.288C19.368,28.65,19,29.301,19,30.007 V31H31z"></path> <circle cx="16" cy="4" r="3" stroke="#000000"></circle></g></svg>