<svg xmlns="http://www.w3.org/2000/svg" viewBox="0 0 32 32"><title>mickey mouse</title><g stroke-linecap="round" stroke-width="1" fill="none" stroke="#000000" stroke-linejoin="round" class="nc-icon-wrapper" transform="translate(0.5 0.5)"><path d="M31,8.075 C31,4.72,28.253,2,24.864,2c-3.656,0-6.665,3.2-6.038,7.044C17.914,8.854,16.969,8.75,16,8.75s-1.914,0.104-2.826,0.294 C13.801,5.198,10.791,2,7.136,2C3.747,2,1,4.72,1,8.075c0,2.73,1.831,5.012,4.334,5.778C2.813,16.987,2.129,20.973,3,25 c3.84,2.466,8.082,4,13,4s9.16-1.534,13-4c0.869-4.018,0.192-8.007-2.334-11.147C29.169,13.087,31,10.805,31,8.075z"></path></g></svg>