<svg xmlns="http://www.w3.org/2000/svg" viewBox="0 0 32 32"><title>mobile contact</title><g stroke-linecap="round" stroke-width="1" fill="none" stroke="#000000" stroke-linejoin="round" class="nc-icon-wrapper" transform="translate(0.5 0.5)"><line x1="6" y1="25" x2="26" y2="25"></line> <line x1="6" y1="5" x2="26" y2="5"></line> <path d="M24,31H8c-1.1,0-2-0.9-2-2 V3c0-1.1,0.9-2,2-2h16c1.1,0,2,0.9,2,2v26C26,30.1,25.1,31,24,31z"></path> <circle cx="16" cy="12" r="2" stroke="#000000"></circle> <path d="M21,21H11v0 c0-2.209,1.791-4,4-4h2C19.209,17,21,18.791,21,21L21,21z" stroke="#000000"></path></g></svg>