<svg xmlns="http://www.w3.org/2000/svg" viewBox="0 0 32 32"><title>multiple 19</title><g stroke-linecap="round" stroke-width="1" fill="none" stroke="#000000" stroke-linejoin="round" class="nc-icon-wrapper" transform="translate(0.5 0.5)"><path d="M19,9.5 c0,2.485,2.015,5.5,4.5,5.5S28,11.985,28,9.5S25.985,5,23.5,5S19,7.015,19,9.5z" stroke="#000000"></path> <path data-cap="butt" d="M24,25h7v-2.162 c0-1.223-0.735-2.329-1.871-2.781C27.829,19.539,25.9,19,23.5,19s-4.329,0.539-5.629,1.057c-0.536,0.214-0.98,0.57-1.303,1.018" stroke="#000000"></path> <path d="M20,28H1v-2.815c0-1.526,0.861-2.923,2.233-3.591 C4.834,20.814,7.277,20,10.5,20s5.666,0.814,7.267,1.594C19.139,22.262,20,23.659,20,25.185V28z"></path> <path d="M16,9.5 c0,3.038-2.462,6.5-5.5,6.5S5,12.538,5,9.5S7.462,4,10.5,4S16,6.462,16,9.5z"></path></g></svg>