<svg xmlns="http://www.w3.org/2000/svg" viewBox="0 0 32 32"><title>multiple</title><g stroke-linecap="round" stroke-width="1" fill="none" stroke="#000000" stroke-linejoin="round" class="nc-icon-wrapper" transform="translate(0.5 0.5)"><path d="M22,5 c0-1.657,1.343-3,3-3s3,1.343,3,3s-1.042,4-3,4C23,9,22,6.657,22,5z" stroke="#000000"></path> <path d="M31,18 v-2.983c0-0.71-0.372-1.363-0.983-1.725C29.044,12.717,27.358,12,25,12c-2.388,0-4.064,0.713-5.026,1.288 C19.368,13.65,19,14.301,19,15.007V18H31z" stroke="#000000"></path> <path d="M19,30H1v-4.242 c0-1.775,1.164-3.334,2.866-3.838C5.46,21.448,7.604,21,10,21c2.356,0,4.514,0.456,6.125,0.932C17.83,22.436,19,23.994,19,25.773V30 z"></path> <path d="M5,11c0-2.761,2.239-5,5-5 s5,2.239,5,5s-2.239,6-5,6S5,13.761,5,11z"></path></g></svg>