<svg xmlns="http://www.w3.org/2000/svg" viewBox="0 0 32 32"><title>parent</title><g stroke-linecap="round" stroke-width="1" fill="none" stroke="#000000" stroke-linejoin="round" class="nc-icon-wrapper" transform="translate(0.5 0.5)"><path d="M15,7 c0-3.314,2.686-6,6-6s6,2.686,6,6s-2.686,7-6,7S15,10.314,15,7z" stroke="#000000"></path> <path data-cap="butt" d="M17,18.43 c1.185-0.26,2.525-0.43,4-0.43c3.301,0,5.926,0.854,7.657,1.651C30.083,20.307,31,21.723,31,23.293V31H21" stroke="#000000"></path> <path d="M4,16c0-2.761,2.239-5,5-5 s5,2.239,5,5s-2.239,6-5,6S4,18.761,4,16z"></path> <path d="M17,28.926 c0-1.258-0.782-2.377-1.961-2.816C13.605,25.576,11.483,25,9,25s-4.605,0.576-6.039,1.11C1.782,26.549,1,27.668,1,28.926V31h16 V28.926z"></path></g></svg>