<svg xmlns="http://www.w3.org/2000/svg" viewBox="0 0 32 32"><title>reading</title><g stroke-linecap="round" stroke-width="1" fill="none" stroke="#000000" stroke-linejoin="round" class="nc-icon-wrapper" transform="translate(0.5 0.5)"><polygon points="23 30 15.944 31 9 30 9 19 15.944 20 23 19 23 30" stroke="#000000"></polygon><path d="M15.944,11h0a5,5,0,0,1-5-5h0a5,5,0,0,1,5-5h0a5,5,0,0,1,5,5h0A5,5,0,0,1,15.944,11Z"></path><path d="M13,25,3.025,27.494a1,1,0,0,1-1.15-1.39l4.589-9.942A2,2,0,0,1,8.28,15H23.715a2,2,0,0,1,1.819,1.168l4.545,9.939a1,1,0,0,1-1.153,1.386L19,25"></path></g></svg>