<svg xmlns="http://www.w3.org/2000/svg" viewBox="0 0 32 32"><title>security officer</title><g stroke-linecap="round" stroke-width="1" fill="none" stroke="#000000" stroke-linejoin="round" class="nc-icon-wrapper" transform="translate(0.5 0.5)"><line x1="16" y1="26" x2="16" y2="31" stroke="#000000"></line><path d="M26,4.5C26,2.567,21.523,1,16,1S6,2.567,6,4.5C6,5.524,7.264,6.442,9.266,7.082,10.093,8.765,12.791,10,16,10s5.907-1.235,6.734-2.918C24.736,6.442,26,5.524,26,4.5Z"></path><path d="M12.819,19.083l-8.734,4.78A4,4,0,0,0,2,27.375V31H30V27.375a4,4,0,0,0-2.085-3.512l-8.734-4.78" data-cap="butt"></path><path d="M24,6.594V9c0,6-3.582,11-8,11S8,15,8,9V6.594" data-cap="butt"></path><circle cx="16" cy="5.5" r="1.5" stroke="none" fill="#000000"></circle></g></svg>