<svg xmlns="http://www.w3.org/2000/svg" viewBox="0 0 32 32"><title>social distancing</title><g stroke-linecap="round" stroke-width="1" fill="none" stroke="#000000" stroke-linejoin="round" class="nc-icon-wrapper" transform="translate(0.5 0.5)"><path d="M11,18V16a4,4,0,0,0-4-4H5a4,4,0,0,0-4,4v5H3v8H5"></path><circle cx="6" cy="6" r="3"></circle><path d="M27,29h2V21h2V16a4,4,0,0,0-4-4H25a4,4,0,0,0-4,4v2"></path><circle cx="26" cy="6" r="3"></circle><line x1="7" y1="26" x2="25" y2="26" data-cap="butt" stroke="#000000"></line><polyline points="11 30 7 26 11 22" stroke="#000000"></polyline><polyline points="21 30 25 26 21 22" stroke="#000000"></polyline></g></svg>