<svg xmlns="http://www.w3.org/2000/svg" viewBox="0 0 32 32"><title>toilette</title><g stroke-linecap="round" stroke-width="1" fill="none" stroke="#000000" stroke-linejoin="round" class="nc-icon-wrapper" transform="translate(0.5 0.5)"><circle cx="25" cy="5" r="3"></circle><circle cx="7" cy="5" r="3"></circle><line x1="16" y1="2" x2="16" y2="30" stroke="#000000"></line><path d="M22.5,24h-3l1.194-10.345A3,3,0,0,1,23.674,11h2.649a3,3,0,0,1,2.98,2.655L30.5,24h-3L27,30H23Z"></path><path d="M2,14v8l3,1v7H9V23l3-1V14a3,3,0,0,0-3-3H5A3,3,0,0,0,2,14Z"></path></g></svg>