<svg xmlns="http://www.w3.org/2000/svg" viewBox="0 0 32 32"><title>user frame 32</title><g stroke-linecap="round" stroke-width="1" fill="none" stroke="#000000" stroke-linejoin="round" class="nc-icon-wrapper" transform="translate(0.5 0.5)"><path data-cap="butt" d="M18.003,20.583 c0.201,1.197,0.827,3.158,2.77,3.806C23.488,25.293,25.815,25.743,26,29v2" stroke="#000000"></path> <path data-cap="butt" d="M13.993,20.581 c-0.201,1.197-0.824,3.16-2.765,3.807C8.512,25.294,6.185,25.743,6,29v2" stroke="#000000"></path> <path d="M16,21 L16,21c-2.761,0-5-2.239-5-5v-2c0-2.761,2.239-5,5-5h0c2.761,0,5,2.239,5,5v2C21,18.761,18.761,21,16,21z" stroke="#000000"></path> <rect x="1" y="1" width="30" height="30"></rect></g></svg>