<svg xmlns="http://www.w3.org/2000/svg" viewBox="0 0 32 32"><title>users wm</title><g stroke-linecap="round" stroke-width="1" fill="none" stroke="#000000" stroke-linejoin="round" class="nc-icon-wrapper" transform="translate(0.5 0.5)"><path d="M25,29h6V23.562a2,2,0,0,0-1.515-1.941l-5.833-1.458a1,1,0,0,1-.747-.829l-.412-2.881A6,6,0,0,0,26,11V8.252A6.166,6.166,0,0,0,20.185,2,5.977,5.977,0,0,0,17,2.8" stroke="#000000"></path> <path d="M19.549,23.586l-4.925-1.408a1,1,0,0,1-.716-.82l-.415-2.905S17.219,18.734,19,17a10.229,10.229,0,0,1-2-6.738,6.185,6.185,0,0,0-5.761-6.257A6,6,0,0,0,5,10a10.452,10.452,0,0,1-2,7c1.781,1.734,5.507,1.453,5.507,1.453l-.415,2.905a1,1,0,0,1-.716.82L2.451,23.586A2,2,0,0,0,1,25.509V29H21V25.509A2,2,0,0,0,19.549,23.586Z"></path></g></svg>