<svg xmlns="http://www.w3.org/2000/svg" viewBox="0 0 32 32"><title>users ww</title><g stroke-linecap="round" stroke-width="1" fill="none" stroke="#000000" stroke-linejoin="round" class="nc-icon-wrapper" transform="translate(0.5 0.5)"><path d="M19.549,23.586l-4.925-1.408a1,1,0,0,1-.716-.82l-.415-2.905S17.219,18.734,19,17a10.229,10.229,0,0,1-2-6.738,6.185,6.185,0,0,0-5.761-6.257A6,6,0,0,0,5,10a10.452,10.452,0,0,1-2,7c1.781,1.734,5.507,1.453,5.507,1.453l-.415,2.905a1,1,0,0,1-.716.82L2.451,23.586A2,2,0,0,0,1,25.509V29H21V25.509A2,2,0,0,0,19.549,23.586Z"></path> <path d="M25,29h6V23.509a2,2,0,0,0-1.451-1.923l-4.925-1.408a1,1,0,0,1-.716-.82l-.415-2.905S27.219,16.734,29,15a10.229,10.229,0,0,1-2-6.738,6.185,6.185,0,0,0-5.761-6.257,5.973,5.973,0,0,0-3.556,1" stroke="#000000"></path></g></svg>