<svg xmlns="http://www.w3.org/2000/svg" viewBox="0 0 32 32"><title>voice record</title><g stroke-linecap="round" stroke-width="1" fill="none" stroke="#000000" stroke-linejoin="round" class="nc-icon-wrapper" transform="translate(0.5 0.5)"><path d=" M20.001,10.355C20.623,11.06,21,11.986,21,13c0,1.014-0.378,1.94-1,2.646" stroke="#000000"></path> <path d=" M23.001,6.293C24.842,7.941,26,10.335,26,13c0,2.665-1.158,5.06-2.999,6.708" stroke="#000000"></path> <path d="M19,30H1v-2.242 c0-1.775,1.164-3.334,2.866-3.838C5.46,23.448,7.604,23,10,23c2.356,0,4.514,0.456,6.125,0.932C17.83,24.436,19,25.994,19,27.773V30 z"></path> <path d="M5,13c0-2.761,2.239-5,5-5 s5,2.239,5,5s-2.239,6-5,6S5,15.761,5,13z"></path> <path d=" M26.002,2.278C29.058,4.846,31,8.696,31,13c0,4.305-1.943,8.156-5,10.724" stroke="#000000"></path></g></svg>