<svg xmlns="http://www.w3.org/2000/svg" viewBox="0 0 32 32"><title>woman 24</title><g stroke-linecap="round" stroke-width="1" fill="none" stroke="#000000" stroke-linejoin="round" class="nc-icon-wrapper" transform="translate(0.5 0.5)"><path d="M26.588,24.518 l-5.177-1.035C20.009,23.202,19,21.971,19,20.541v-0.826c2.769-0.481,5.639-1.519,7-2.715c-2.813-2.873-2.957-5.741-3.001-9.083 C22.944,4.086,19.832,1,16,1h0c-3.866,0-7,3.134-7,7v0c0,2.957,0,6.062-3,9c1.364,1.198,4.221,2.239,7,2.718v0.823 c0,1.43-1.009,2.661-2.412,2.942l-5.177,1.035C4.009,24.798,3,26.029,3,27.459V31h26v-3.541C29,26.029,27.991,24.798,26.588,24.518z "></path></g></svg>