<svg xmlns="http://www.w3.org/2000/svg" viewBox="0 0 32 32"><title>business contact 86</title><g stroke-linecap="round" stroke-width="1" fill="none" stroke="#000000" stroke-linejoin="round" class="nc-icon-wrapper" transform="translate(0.5 0.5)"><line x1="16" y1="31" x2="16" y2="24" stroke="#000000"></line> <path data-cap="butt" d="M12.819,19.083l-8.734,4.78 C2.8,24.564,2,25.911,2,27.375V31h28v-3.625c0-1.464-0.8-2.811-2.085-3.512l-8.734-4.78"></path> <path d="M8,9c0-4.418,3.582-8,8-8 s8,3.582,8,8c0,6-3.582,11-8,11S8,15,8,9z"></path> <path data-cap="butt" d="M8.038,8.212 C9.207,8.712,10.558,9,12,9c2.621,0,4.941-0.95,6.4-2.411C19.677,8.05,21.706,9,24,9"></path></g></svg>