<svg xmlns="http://www.w3.org/2000/svg" viewBox="0 0 32 32"><title>card update</title><g stroke-linecap="round" stroke-width="1" fill="none" stroke="#000000" stroke-linejoin="round" class="nc-icon-wrapper" transform="translate(0.5 0.5)"><line x1="5" y1="19" x2="12" y2="19"></line> <line x1="1" y1="8" x2="31" y2="8"></line> <line x1="1" y1="13" x2="31" y2="13"></line> <path d="M15,24H3 c-1.105,0-2-0.895-2-2V4c0-1.105,0.895-2,2-2h26c1.105,0,2,0.895,2,2v9"></path> <path data-cap="butt" stroke="#000000" d="M27.988,20.012 C27.075,18.797,25.636,18,24,18c-2.761,0-5,2.239-5,5"></path> <polygon points="30,16 30,22 24,22 " stroke-linejoin="miter" stroke="none" fill="#000000"></polygon> <path data-cap="butt" stroke="#000000" d="M20.012,26.988 C20.925,28.203,22.364,29,24,29c2.761,0,5-2.239,5-5"></path> <polyline points="18,25 24,25 18,31 " stroke-linejoin="miter" stroke="none" fill="#000000"></polyline></g></svg>