<svg xmlns="http://www.w3.org/2000/svg" viewBox="0 0 32 32"><title>cloud mining</title><g stroke-linecap="round" stroke-width="1" fill="none" stroke="#000000" stroke-linejoin="round" class="nc-icon-wrapper" transform="translate(0.5 0.5)"><circle cx="3.5" cy="28.5" r="2.5" stroke="#000000"></circle><circle cx="16" cy="28.5" r="2.5" stroke="#000000"></circle><circle cx="28.5" cy="28.5" r="2.5" stroke="#000000"></circle><line x1="16" y1="26" x2="16" y2="19" data-cap="butt" stroke="#000000"></line><polyline points="26.733 26.733 24 24 24 19" data-cap="butt" stroke="#000000"></polyline><polyline points="5.268 26.732 8 24 8 19" data-cap="butt" stroke="#000000"></polyline><path d="M25,7c-.173,0-.344.012-.514.026a8.988,8.988,0,0,0-16.972,0C7.344,7.012,7.173,7,7,7A6,6,0,0,0,7,19H25A6,6,0,0,0,25,7Z"></path></g></svg>