<svg xmlns="http://www.w3.org/2000/svg" viewBox="0 0 32 32"><title>coins</title><g stroke-linecap="round" stroke-width="1" fill="none" stroke="#000000" stroke-linejoin="round" class="nc-icon-wrapper" transform="translate(0.5 0.5)"><path data-cap="butt" d="M1,5v4c0,1.657,2.686,3,6,3 s6-1.343,6-3V5"></path> <path data-cap="butt" d="M1,9v4c0,1.657,2.686,3,6,3 s6-1.343,6-3V9"></path> <line data-cap="butt" x1="13" y1="16.401" x2="13" y2="13"></line> <path data-cap="butt" d="M1,13v4c0,1.657,2.686,3,6,3 c1.093,0,2.117-0.147,3-0.402"></path> <path data-cap="butt" d="M1,17v4c0,1.657,2.686,3,6,3 c1.093,0,2.118-0.147,3-0.402"></path> <ellipse cx="7" cy="5" rx="6" ry="3"></ellipse> <path data-cap="butt" d="M19,9v4c0,1.657,2.686,3,6,3 s6-1.343,6-3V9"></path> <path data-cap="butt" d="M22,19.594 C22.883,19.85,23.906,20,25,20c3.314,0,6-1.343,6-3v-4"></path> <line data-cap="butt" x1="19" y1="13" x2="19" y2="16.401"></line> <path data-cap="butt" d="M22,23.596 C22.883,23.851,23.907,24,25,24c3.314,0,6-1.343,6-3v-4"></path> <ellipse cx="25" cy="9" rx="6" ry="3"></ellipse> <path data-cap="butt" d="M10,19v4c0,1.657,2.686,3,6,3 s6-1.343,6-3v-4" stroke="#000000"></path> <path data-cap="butt" d="M10,23v4c0,1.657,2.686,3,6,3 s6-1.343,6-3v-4" stroke="#000000"></path> <ellipse cx="16" cy="19" rx="6" ry="3" stroke="#000000"></ellipse></g></svg>