<svg xmlns="http://www.w3.org/2000/svg" viewBox="0 0 32 32"><title>contactless card</title><g stroke-linecap="round" stroke-width="1" fill="none" stroke="#000000" stroke-linejoin="round" class="nc-icon-wrapper" transform="translate(0.5 0.5)"><path d="M24.865,16.814a6.976,6.976,0,0,0,0-7.628" stroke="#000000"></path><path d="M21.34,14.856a2.94,2.94,0,0,0,0-3.712" stroke="#000000"></path><path d="M1,25V7A2,2,0,0,1,3,5H29a2,2,0,0,1,2,2V25a2,2,0,0,1-2,2H3A2,2,0,0,1,1,25Z"></path><line x1="6" y1="22" x2="18" y2="22"></line><line x1="22" y1="22" x2="26" y2="22"></line><rect x="6" y="10" width="5" height="4"></rect><circle cx="18" cy="13" r="1" stroke="none" fill="#000000"></circle></g></svg>