<svg xmlns="http://www.w3.org/2000/svg" viewBox="0 0 32 32"><title>credit locked</title><g stroke-linecap="round" stroke-width="1" fill="none" stroke="#000000" stroke-linejoin="round" class="nc-icon-wrapper" transform="translate(0.5 0.5)"><line x1="1" y1="7" x2="31" y2="7"></line> <line x1="1" y1="12" x2="31" y2="12"></line> <path d="M13,23H3 c-1.105,0-2-0.895-2-2V3c0-1.105,0.895-2,2-2h26c1.105,0,2,0.895,2,2v18"></path> <line x1="5" y1="18" x2="12" y2="18"></line> <rect x="17" y="22" width="10" height="9" stroke="#000000"></rect> <line x1="22" y1="26" x2="22" y2="27" stroke="#000000"></line> <path d="M19,22v-3 c0-1.7,1.3-3,3-3l0,0c1.7,0,3,1.3,3,3v3" stroke="#000000"></path></g></svg>