<svg xmlns="http://www.w3.org/2000/svg" viewBox="0 0 32 32"><title>debt</title><g stroke-linecap="round" stroke-width="1" fill="none" stroke="#000000" stroke-linejoin="round" class="nc-icon-wrapper" transform="translate(0.5 0.5)"><circle cx="24" cy="5" r="3"></circle><path d="M9,30l5.28-4.4A2,2,0,0,0,15,24.063V23"></path><path d="M18.266,9.547,14.352,16.4a2.67,2.67,0,0,0,.945,3.614l3.732,2.24A2,2,0,0,1,20,23.966V31" data-cap="butt"></path><circle cx="7" cy="5" r="4" stroke="#000000"></circle><path d="M20.437,18.264l2.172-3.819a2.666,2.666,0,0,0-1.125-3.7L19.39,9.7A2,2,0,0,0,17.9,9.576L7,13"></path></g></svg>