<svg xmlns="http://www.w3.org/2000/svg" viewBox="0 0 32 32"><title>hand card</title><g stroke-linecap="round" stroke-width="1" fill="none" stroke="#000000" stroke-linejoin="round" class="nc-icon-wrapper" transform="translate(0.5 0.5)"><line data-cap="butt" x1="1" y1="9" x2="12" y2="9" stroke="#000000"></line> <line data-cap="butt" x1="1" y1="13" x2="19.1" y2="13" stroke="#000000"></line> <polyline data-cap="butt" points="21,16.2 21,21 1,21 1,4 1,4 21,4 21,8 "></polyline> <line x1="5" y1="17" x2="10" y2="17" stroke="#000000"></line> <path data-cap="butt" d="M25,18c-3,0-6-3-6-6h-3 c-2.2,0-4-1.8-4-4v0h9c5.5,0,10,4.5,10,10v0c0,5.5-4.5,10-10,10H10c-1.7,0-3-1.3-3-3v-1h9"></path> <path data-cap="butt" d="M7,24L7,24c-1.7,0-3-1.3-3-3v0"></path></g></svg>