<svg xmlns="http://www.w3.org/2000/svg" viewBox="0 0 32 32"><title>info point</title><g stroke-linecap="round" stroke-width="1" fill="none" stroke="#000000" stroke-linejoin="round" class="nc-icon-wrapper" transform="translate(0.5 0.5)"><path d="M16,7h0a3,3,0,0,1-3-3h0a3,3,0,0,1,3-3h0a3,3,0,0,1,3,3h0A3,3,0,0,1,16,7Z"></path><path d="M11,17V13a3,3,0,0,1,3-3h4a3,3,0,0,1,3,3v4"></path><rect x="6" y="17" width="20" height="4" stroke="#000000"></rect><polyline points="23 21 23 31 9 31 9 21" stroke="#000000"></polyline></g></svg>