<svg xmlns="http://www.w3.org/2000/svg" viewBox="0 0 32 32"><title>interview</title><g stroke-linecap="round" stroke-width="1" fill="none" stroke="#000000" stroke-linejoin="round" class="nc-icon-wrapper" transform="translate(0.5 0.5)"><path d="M19.536,8.464a5,5,0,0,0-7.072,0" stroke="#000000"></path><path d="M23.071,4.929a10,10,0,0,0-14.142,0" stroke="#000000"></path><path d="M2,9a8,8,0,0,1,8,8v1l2,4.5-2,1V25a3,3,0,0,1-3,3H4v3"></path><path d="M30,9a8,8,0,0,0-8,8v1l-2,4.5,2,1V25a3,3,0,0,0,3,3h3v3"></path><circle cx="16" cy="12" r="1" stroke="none" fill="#000000"></circle></g></svg>