<svg xmlns="http://www.w3.org/2000/svg" viewBox="0 0 32 32"><title>joint account</title><g stroke-linecap="round" stroke-width="1" fill="none" stroke="#000000" stroke-linejoin="round" class="nc-icon-wrapper" transform="translate(0.5 0.5)"><circle cx="25" cy="4" r="3"></circle><circle cx="7" cy="4" r="3"></circle><path d="M25,18h6V13.017a2,2,0,0,0-.983-1.725A9.8,9.8,0,0,0,25,10a9.716,9.716,0,0,0-5.026,1.288A2,2,0,0,0,19,13.007"></path><path d="M7,18H1V13.017a2,2,0,0,1,.983-1.725A9.8,9.8,0,0,1,7,10a9.716,9.716,0,0,1,5.026,1.288A2,2,0,0,1,13,13.007"></path><circle cx="16" cy="24" r="7" stroke="#000000"></circle><line x1="16" y1="21" x2="15.999" y2="27" stroke="#000000"></line></g></svg>