<svg xmlns="http://www.w3.org/2000/svg" viewBox="0 0 32 32"><title>logic</title><g stroke-linecap="round" stroke-width="1" fill="none" stroke="#000000" stroke-linejoin="round" class="nc-icon-wrapper" transform="translate(0.5 0.5)"><path d="M25,31V21.926A11.994,11.994,0,1,0,5,13v1L2.5,19.5,5,21v4a3,3,0,0,0,3,3h5v3"></path><circle cx="17" cy="13" r="4" stroke="#000000"></circle><line x1="17" y1="9" x2="17" y2="7" stroke="#000000"></line><line x1="19.828" y1="10.172" x2="21.243" y2="8.757" stroke="#000000"></line><line x1="21" y1="13" x2="23" y2="13" stroke="#000000"></line><line x1="19.828" y1="15.828" x2="21.243" y2="17.243" stroke="#000000"></line><line x1="17" y1="17" x2="17" y2="19" stroke="#000000"></line><line x1="14.172" y1="15.828" x2="12.757" y2="17.243" stroke="#000000"></line><line x1="13" y1="13" x2="11" y2="13" stroke="#000000"></line><line x1="14.172" y1="10.172" x2="12.757" y2="8.757" stroke="#000000"></line></g></svg>