<svg xmlns="http://www.w3.org/2000/svg" viewBox="0 0 32 32"><title>miner</title><g stroke-linecap="round" stroke-width="1" fill="none" stroke="#000000" stroke-linejoin="round" class="nc-icon-wrapper" transform="translate(0.5 0.5)"><line x1="16" y1="27" x2="16" y2="31.015"></line><path d="M11.936,19.558,3.218,23.9A4,4,0,0,0,1,27.477V31H31V27.477A4,4,0,0,0,28.782,23.9l-8.718-4.338" data-cap="butt"></path><path d="M24,11c0,6.429-4.429,10-8,10S8,17.429,8,11" data-cap="butt"></path><line x1="6" y1="11" x2="26" y2="11" stroke="#000000"></line><path d="M7,11V10a9,9,0,0,1,18,0v1" stroke="#000000"></path><polyline points="16 3 16 1 16 2" stroke="#000000"></polyline></g></svg>