<svg xmlns="http://www.w3.org/2000/svg" viewBox="0 0 32 32"><title>money coins</title><g stroke-linecap="round" stroke-width="1" fill="none" stroke="#000000" stroke-linejoin="round" class="nc-icon-wrapper" transform="translate(0.5 0.5)"><polyline points="15,23 1,23 1,1 31,1 31,15 "></polyline> <circle cx="16" cy="12" r="3"></circle> <path d="M27,13V9 c-2.259,0-4-1.741-4-4H9c0,2.259-1.741,4-4,4v6c2.259,0,4,1.741,4,4h6"></path> <path data-cap="butt" d="M19,20v4c0,1.657,2.686,3,6,3 s6-1.343,6-3v-4" stroke="#000000"></path> <path data-cap="butt" d="M19,24v4c0,1.657,2.686,3,6,3 s6-1.343,6-3v-4" stroke="#000000"></path> <ellipse cx="25" cy="20" rx="6" ry="3" stroke="#000000"></ellipse></g></svg>