<svg xmlns="http://www.w3.org/2000/svg" viewBox="0 0 32 32"><title>money time</title><g stroke-linecap="round" stroke-width="1" fill="none" stroke="#000000" stroke-linejoin="round" class="nc-icon-wrapper" transform="translate(0.5 0.5)"><polyline points="14,8 14,14 8,14 "></polyline> <path data-cap="butt" d="M19,20v4c0,1.657,2.686,3,6,3 s6-1.343,6-3v-4" stroke="#000000"></path> <path data-cap="butt" d="M19,24v4c0,1.657,2.686,3,6,3 s6-1.343,6-3v-4" stroke="#000000"></path> <ellipse cx="25" cy="20" rx="6" ry="3" stroke="#000000"></ellipse> <path d="M15,26.962 C14.67,26.987,14.336,27,14,27C6.82,27,1,21.18,1,14S6.82,1,14,1c6.843,0,12.452,5.288,12.962,12"></path></g></svg>