<svg xmlns="http://www.w3.org/2000/svg" viewBox="0 0 32 32"><title>payment</title><g stroke-linecap="round" stroke-width="1" fill="none" stroke="#000000" stroke-linejoin="round" class="nc-icon-wrapper" transform="translate(0.5 0.5)"><path d="M8,4V3c0-1.105,0.895-2,2-2 h0c1.105,0,2,0.895,2,2v1"></path> <path d="M12,4V3 c0-1.105,0.895-2,2-2h0c1.105,0,2,0.895,2,2v1"></path> <path d="M16,4V3 c0-1.105,0.895-2,2-2h0c1.105,0,2,0.895,2,2v1"></path> <path d="M20,4V3 c0-1.105,0.895-2,2-2h0c1.105,0,2,0.895,2,2v1"></path> <polyline data-cap="butt" points="18.244,21 1,21 1,7 31,7 31,21 27,21 "></polyline> <circle cx="16" cy="14" r="3" stroke="#000000"></circle> <path d="M8,21v0.5 c0,5.247,4.253,9.5,9.5,9.5h0c5.247,0,9.5-4.253,9.5-9.5V21v-9c-2.259,0-4,1.741-4,4v3c-3.083,0-6,2.167-6,5"></path> ,/g></g></svg>