<svg xmlns="http://www.w3.org/2000/svg" viewBox="0 0 32 32"><title>positive judgement</title><g stroke-linecap="round" stroke-width="1" fill="none" stroke="#000000" stroke-linejoin="round" class="nc-icon-wrapper" transform="translate(0.5 0.5)"><polyline points="12 26 15 29 21 23" stroke="#000000"></polyline><path d="M10,19V13a3,3,0,0,1,3-3h6a3,3,0,0,1,3,3v6"></path><path d="M16,7h0a3,3,0,0,1-3-3h0a3,3,0,0,1,3-3h0a3,3,0,0,1,3,3h0A3,3,0,0,1,16,7Z"></path><line x1="4" y1="19" x2="28" y2="19"></line><line x1="6" y1="31" x2="6" y2="19"></line><line x1="26" y1="19" x2="26" y2="31"></line></g></svg>