<svg xmlns="http://www.w3.org/2000/svg" viewBox="0 0 32 32"><title>wallet 44</title><g stroke-linecap="round" stroke-width="1" fill="none" stroke="#000000" stroke-linejoin="round" class="nc-icon-wrapper" transform="translate(0.5 0.5)"><line x1="28" y1="12" x2="25" y2="12"></line> <line x1="21" y1="12" x2="19" y2="12"></line> <line x1="15" y1="12" x2="13" y2="12"></line> <line x1="9" y1="12" x2="7" y2="12"></line> <line x1="3" y1="12" x2="1" y2="12"></line> <line x1="28" y1="26" x2="25" y2="26"></line> <line x1="21" y1="26" x2="19" y2="26"></line> <line x1="15" y1="26" x2="13" y2="26"></line> <line x1="9" y1="26" x2="7" y2="26"></line> <line x1="3" y1="26" x2="1" y2="26"></line> <path d="M28,16V8h-6H9H4 C2.343,8,1,6.657,1,5v21c0,2.209,1.791,4,4,4h23v-8"></path> <path d="M31,22h-7 c-1.657,0-3-1.343-3-3v0c0-1.657,1.343-3,3-3h7V22z" stroke="#000000"></path> <path d="M22,4V2H4 C2.343,2,1,3.343,1,5v0c0,1.657,1.343,3,3,3"></path></g></svg>