<svg xmlns="http://www.w3.org/2000/svg" viewBox="0 0 32 32"><title>wallet 90</title><g stroke-linecap="round" stroke-width="1" fill="none" stroke="#000000" stroke-linejoin="round" class="nc-icon-wrapper" transform="translate(0.5 0.5)"><polyline points="7,9 7,1 24,1 24,9 "></polyline> <path d="M28,17V9h-6H9H4 C2.343,9,1,7.657,1,6v21c0,2.209,1.791,4,4,4h23v-8"></path> <path d="M31,23h-7 c-1.657,0-3-1.343-3-3v0c0-1.657,1.343-3,3-3h7V23z" stroke="#000000"></path> <path d="M7,3H4C2.343,3,1,4.343,1,6 v0c0,1.657,1.343,3,3,3"></path></g></svg>