<svg xmlns="http://www.w3.org/2000/svg" viewBox="0 0 32 32"><title>edit brightness</title><g stroke-linecap="round" stroke-width="1" fill="none" stroke="#000000" stroke-linejoin="round" class="nc-icon-wrapper" transform="translate(0.5 0.5)"><path d="M22,6a4,4,0,0,0,4-4,4,4,0,0,0,4,4" data-cap="butt" stroke="#000000"></path><path d="M22,6a4,4,0,0,1,4,4,4,4,0,0,1,4-4" data-cap="butt" stroke="#000000"></path><path d="M2,26a4,4,0,0,0,4-4,4,4,0,0,0,4,4" data-cap="butt" stroke="#000000"></path><path d="M2,26a4,4,0,0,1,4,4,4,4,0,0,1,4-4" data-cap="butt" stroke="#000000"></path><path d="M16,23a7,7,0,0,0,7-7,7,7,0,0,0,7,7" data-cap="butt"></path><path d="M16,23a7,7,0,0,1,7,7,7,7,0,0,1,7-7" data-cap="butt"></path><path d="M2,9A7,7,0,0,0,9,2a7,7,0,0,0,7,7" data-cap="butt"></path><path d="M2,9a7,7,0,0,1,7,7,7,7,0,0,1,7-7" data-cap="butt"></path></g></svg>