<svg xmlns="http://www.w3.org/2000/svg" viewBox="0 0 32 32"><title>file ttf</title><g stroke-linecap="round" stroke-width="1" fill="none" stroke="#000000" stroke-linejoin="round" class="nc-icon-wrapper" transform="translate(0.5 0.5)"><polyline data-cap="butt" points="20,1 20,9 28,9 "></polyline> <polyline points="28,13 28,9 20,1 4,1 4,13 "></polyline> <polyline points="4,27 4,31 28,31 28,27 "></polyline> <path d="M12.3,23h-1.5v-4.4H9.3v-1.3h4.3v1.3h-1.4V23z" stroke-linejoin="miter" stroke="none" fill="#000000"></path> <path d="M17,23h-1.5v-4.4H14v-1.3h4.3v1.3H17V23z" stroke-linejoin="miter" stroke="none" fill="#000000"></path> <path d="M20.7,23h-1.5v-5.7h3.4v1.2h-1.9v1.1h1.7v1.2h-1.7V23z" stroke-linejoin="miter" stroke="none" fill="#000000"></path> <rect x="1" y="13" width="30" height="14"></rect></g></svg>