<svg xmlns="http://www.w3.org/2000/svg" viewBox="0 0 32 32"><title>file max</title><g stroke-linecap="round" stroke-width="1" fill="none" stroke="#000000" stroke-linejoin="round" class="nc-icon-wrapper" transform="translate(0.5 0.5)"><polyline data-cap="butt" points="20,1 20,9 28,9 "></polyline> <polyline points="28,13 28,9 20,1 4,1 4,13 "></polyline> <polyline points="4,27 4,31 28,31 28,27 "></polyline> <path d="M9.4,23l-1.2-4.1h0c0.1,0.7,0.1,1.2,0.1,1.6V23H7v-5.7H9l1.2,4.1h0l1.2-4.1h2.1V23 H12v-2.5c0-0.1,0-0.3,0-0.4s0-0.5,0.1-1.2h0L10.9,23H9.4z" stroke-linejoin="miter" stroke="none" fill="#000000"></path> <path d="M18.2,23l-0.3-1.1h-1.9L15.8,23h-1.7l1.9-5.7H18l1.9,5.7H18.2z M17.6,20.7 l-0.2-0.9c-0.1-0.2-0.1-0.5-0.2-0.8S17,18.4,17,18.2c0,0.1-0.1,0.4-0.1,0.7s-0.2,0.9-0.5,1.8H17.6z" stroke-linejoin="miter" stroke="none" fill="#000000"></path> <path d="M25.6,23h-1.8l-1.1-1.8L21.6,23h-1.7l1.9-2.9L20,17.3h1.7l1,1.8l1-1.8h1.8l-1.8,2.9 L25.6,23z" stroke-linejoin="miter" stroke="none" fill="#000000"></path> <rect x="1" y="13" width="30" height="14"></rect></g></svg>