<svg xmlns="http://www.w3.org/2000/svg" viewBox="0 0 32 32"><title>file font</title><g stroke-linecap="round" stroke-width="1" fill="none" stroke="#000000" stroke-linejoin="round" class="nc-icon-wrapper" transform="translate(0.5 0.5)"><polyline data-cap="butt" points="20,1 20,9 28,9 "></polyline> <polyline points="28,13 28,9 20,1 4,1 4,13 "></polyline> <polyline points="4,27 4,31 28,31 28,27 "></polyline> <path d="M7.1,23H5.6v-5.7h3.4v1.2H7.1v1.1h1.7v1.2H7.1V23z" stroke-linejoin="miter" stroke="none" fill="#000000"></path> <path d="M15.2,20.1c0,1-0.2,1.7-0.7,2.2s-1.2,0.8-2.1,0.8c-0.9,0-1.6-0.3-2.1-0.8 s-0.7-1.2-0.7-2.2c0-1,0.2-1.7,0.7-2.2s1.2-0.8,2.1-0.8c0.9,0,1.6,0.2,2.1,0.7S15.2,19.2,15.2,20.1z M11.3,20.1 c0,1.1,0.4,1.7,1.2,1.7c0.4,0,0.7-0.1,0.9-0.4s0.3-0.7,0.3-1.3c0-0.6-0.1-1-0.3-1.3s-0.5-0.4-0.9-0.4C11.7,18.5,11.3,19,11.3,20.1z" stroke-linejoin="miter" stroke="none" fill="#000000"></path> <path d="M21.7,23h-2l-2.1-4h0c0,0.6,0.1,1.1,0.1,1.4V23h-1.4v-5.7h2l2.1,4h0 c0-0.6-0.1-1-0.1-1.4v-2.6h1.4V23z" stroke-linejoin="miter" stroke="none" fill="#000000"></path> <path d="M25.5,23h-1.5v-4.4h-1.4v-1.3h4.3v1.3h-1.4V23z" stroke-linejoin="miter" stroke="none" fill="#000000"></path> <rect x="1" y="13" width="30" height="14"></rect></g></svg>