<svg xmlns="http://www.w3.org/2000/svg" viewBox="0 0 32 32"><title>file php</title><g stroke-linecap="round" stroke-width="1" fill="none" stroke="#000000" stroke-linejoin="round" class="nc-icon-wrapper" transform="translate(0.5 0.5)"><polyline data-cap="butt" points="20,1 20,9 28,9 "></polyline> <polyline points="28,13 28,9 20,1 4,1 4,13 "></polyline> <polyline points="4,27 4,31 28,31 28,27 "></polyline> <path d="M12.6,19.1c0,0.6-0.2,1.1-0.6,1.5s-0.9,0.5-1.6,0.5H10V23H8.5v-5.7h2 c0.7,0,1.3,0.2,1.6,0.5S12.6,18.5,12.6,19.1z M10,19.8h0.3c0.2,0,0.4-0.1,0.6-0.2s0.2-0.3,0.2-0.5c0-0.4-0.2-0.6-0.6-0.6H10V19.8z" stroke-linejoin="miter" stroke="none" fill="#000000"></path> <path d="M18.4,23h-1.6v-2.3h-1.8V23h-1.6v-5.7h1.6v2.1h1.8v-2.1h1.6V23z" stroke-linejoin="miter" stroke="none" fill="#000000"></path> <path d="M23.8,19.1c0,0.6-0.2,1.1-0.6,1.5s-0.9,0.5-1.6,0.5h-0.4V23h-1.5v-5.7h2 c0.7,0,1.3,0.2,1.6,0.5S23.8,18.5,23.8,19.1z M21.2,19.8h0.3c0.2,0,0.4-0.1,0.6-0.2s0.2-0.3,0.2-0.5c0-0.4-0.2-0.6-0.6-0.6h-0.4 V19.8z" stroke-linejoin="miter" stroke="none" fill="#000000"></path> <rect x="1" y="13" width="30" height="14"></rect></g></svg>