<svg xmlns="http://www.w3.org/2000/svg" viewBox="0 0 32 32"><title>mobile design</title><g stroke-linecap="round" stroke-width="1" fill="none" stroke="#000000" stroke-linejoin="round" class="nc-icon-wrapper" transform="translate(0.5 0.5)"><path data-cap="butt" d="M25,8v21c0,1.105-0.895,2-2,2H5 c-1.105,0-2-0.895-2-2V3c0-1.105,0.895-2,2-2h18c0.812,0,1.51,0.481,1.824,1.176"></path> <polyline data-cap="butt" points="21,12 21,23 7,23 7,5 21,5 21,6 " stroke="#000000"></polyline> <circle cx="14" cy="27" r="1"></circle> <path d="M20,13 l-3-3l8.379-8.379c0.828-0.828,2.172-0.828,3,0l0,0c0.828,0.828,0.828,2.172,0,3L20,13z" stroke="#000000"></path> <path d=" M11.906,13.874c1.165-1.165,3.055-1.165,4.22,0s1.165,3.055,0,4.22S11,19,11,19S10.89,14.89,11.906,13.874z" stroke="#000000"></path></g></svg>