<svg xmlns="http://www.w3.org/2000/svg" viewBox="0 0 32 32"><title>paint bucket 39</title><g stroke-linecap="round" stroke-width="1" fill="none" stroke="#000000" stroke-linejoin="round" class="nc-icon-wrapper" transform="translate(0.5 0.5)"><path data-cap="butt" d="M3,5v22c0,2.209,5.82,4,13,4 s13-1.791,13-4V5"></path> <path data-cap="butt" d="M3,5c0,8.837,5.82,16,13,16 s13-7.163,13-16"></path> <path d="M29,5 c0-2.209-5.82-4-13-4S3,2.791,3,5c0,2.209,5.82,4,13,4c0.338,0,0.669-0.008,1-0.016V14c0,1.105,0.895,2,2,2s2-0.895,2-2V8.692 C25.697,8.09,29,6.664,29,5z" stroke="#000000"></path></g></svg>