<svg xmlns="http://www.w3.org/2000/svg" viewBox="0 0 32 32"><title>paint 38</title><g stroke-linecap="round" stroke-width="1" fill="none" stroke="#000000" stroke-linejoin="round" class="nc-icon-wrapper" transform="translate(0.5 0.5)"><line x1="5" y1="17" x2="27" y2="17" stroke="#000000"></line> <line x1="16" y1="6" x2="16" y2="5" stroke="#000000"></line> <path d="M24,11h-5V4 c0-1.657-1.343-3-3-3s-3,1.343-3,3v7H8c-1.657,0-3,1.343-3,3v17c3.5,0,6-2.791,6-5c0,2.209,2.458,5,5,5c2.458,0,5-2.791,5-5 c0,2.209,3.437,5,6,5V14C27,12.343,25.657,11,24,11z"></path></g></svg>