<svg xmlns="http://www.w3.org/2000/svg" viewBox="0 0 32 32"><title>paint bucket 40</title><g stroke-linecap="round" stroke-width="1" fill="none" stroke="#000000" stroke-linejoin="round" class="nc-icon-wrapper" transform="translate(0.5 0.5)"><path data-cap="butt" d="M3.3,16.9l15.3,11.2 c1.1,1.1,4.6-0.5,7.7-3.6s4.7-6.5,3.6-7.7L18.6,1.6"></path> <path d="M2,28 c0-1.1,2-4,2-4s2,2.9,2,4s-0.9,2-2,2S2,29.1,2,28z" stroke="#000000"></path> <path data-cap="butt" d="M18,15h4.5c3.6,0,6.5-2.9,6.5-6.5v0 C29,4.9,26.1,2,22.5,2h-3.6"></path> <ellipse transform="matrix(0.7071 -0.7071 0.7071 0.7071 -3.3394 10.4609)" cx="11" cy="9.3" rx="10.8" ry="4.3"></ellipse></g></svg>