<svg xmlns="http://www.w3.org/2000/svg" viewBox="0 0 32 32"><title>path minus</title><g stroke-linecap="round" stroke-width="1" fill="none" stroke="#000000" stroke-linejoin="round" class="nc-icon-wrapper" transform="translate(0.5 0.5)"><polyline points="25,21 31,21 31,1 11,1 11,7 "></polyline> <polyline points=" 19,31 21,31 21,29 " stroke="#000000"></polyline> <polyline points=" 1,29 1,31 3,31 " stroke="#000000"></polyline> <polyline points=" 3,11 1,11 1,13 " stroke="#000000"></polyline> <polyline points=" 19,11 21,11 21,13 " stroke="#000000"></polyline> <line x1="15" y1="31" x2="13" y2="31" stroke="#000000"></line> <line x1="9" y1="31" x2="7" y2="31" stroke="#000000"></line> <line x1="15" y1="11" x2="13" y2="11" stroke="#000000"></line> <line x1="9" y1="11" x2="7" y2="11" stroke="#000000"></line> <line x1="21" y1="25" x2="21" y2="23" stroke="#000000"></line> <line x1="1" y1="25" x2="1" y2="23" stroke="#000000"></line> <line x1="1" y1="19" x2="1" y2="17" stroke="#000000"></line> <line x1="21" y1="19" x2="21" y2="17" stroke="#000000"></line></g></svg>