<svg xmlns="http://www.w3.org/2000/svg" viewBox="0 0 32 32"><title>path intersect</title><g stroke-linecap="round" stroke-width="1" fill="none" stroke="#000000" stroke-linejoin="round" class="nc-icon-wrapper" transform="translate(0.5 0.5)"><polyline points=" 13,1 11,1 11,3 " stroke="#000000"></polyline> <polyline points=" 31,3 31,1 29,1 " stroke="#000000"></polyline> <polyline points=" 29,21 31,21 31,19 " stroke="#000000"></polyline> <line x1="17" y1="1" x2="19" y2="1" stroke="#000000"></line> <line x1="23" y1="1" x2="25" y2="1" stroke="#000000"></line> <line x1="23" y1="21" x2="25" y2="21" stroke="#000000"></line> <line x1="11" y1="7" x2="11" y2="9" stroke="#000000"></line> <line x1="31" y1="7" x2="31" y2="9" stroke="#000000"></line> <line x1="31" y1="13" x2="31" y2="15" stroke="#000000"></line> <polyline points=" 1,13 1,11 3,11 " stroke="#000000"></polyline> <polyline points=" 3,31 1,31 1,29 " stroke="#000000"></polyline> <polyline points=" 21,29 21,31 19,31 " stroke="#000000"></polyline> <line x1="1" y1="17" x2="1" y2="19" stroke="#000000"></line> <line x1="1" y1="23" x2="1" y2="25" stroke="#000000"></line> <line x1="21" y1="23" x2="21" y2="25" stroke="#000000"></line> <line x1="7" y1="11" x2="9" y2="11" stroke="#000000"></line> <line x1="7" y1="31" x2="9" y2="31" stroke="#000000"></line> <line x1="13" y1="31" x2="15" y2="31" stroke="#000000"></line> <rect x="11" y="11" width="10" height="10"></rect></g></svg>