<svg xmlns="http://www.w3.org/2000/svg" viewBox="0 0 32 32"><title>responsive</title><g stroke-linecap="round" stroke-width="1" fill="none" stroke="#000000" stroke-linejoin="round" class="nc-icon-wrapper" transform="translate(0.5 0.5)"><polyline points="4,24 1,24 1,4 17,4 "></polyline> <polyline points="28,4 31,4 31,24 11,24 "></polyline> <line x1="11" y1="30" x2="21" y2="30"></line> <path d="M27,16h-9 c-0.552,0-1-0.448-1-1V2c0-0.552,0.448-1,1-1h9c0.552,0,1,0.448,1,1v13C28,15.552,27.552,16,27,16z" stroke="#000000"></path> <line x1="22" y1="13" x2="23" y2="13" stroke="#000000"></line> <path d="M10,27H5 c-0.552,0-1-0.448-1-1V16c0-0.552,0.448-1,1-1h5c0.552,0,1,0.448,1,1v10C11,26.552,10.552,27,10,27z" stroke="#000000"></path> <line x1="7" y1="24" x2="8" y2="24" stroke="#000000"></line> <polyline points="18,30 18,28 14,28 14,30 "></polyline></g></svg>