<svg xmlns="http://www.w3.org/2000/svg" viewBox="0 0 32 32"><title>tablet mobile</title><g stroke-linecap="round" stroke-width="1" fill="none" stroke="#000000" stroke-linejoin="round" class="nc-icon-wrapper" transform="translate(0.5 0.5)"><polyline data-cap="butt" points="20,19 9,19 9,5 24,5 24,13 "></polyline> <line x1="5" y1="11" x2="5" y2="13"></line> <path data-cap="butt" d="M20,23H2c-0.552,0-1-0.448-1-1V2 c0-0.552,0.448-1,1-1h25c0.552,0,1,0.448,1,1v11"></path> <line x1="25" y1="27" x2="26" y2="27" stroke="#000000"></line> <path d="M29,31h-7 c-1.105,0-2-0.895-2-2V15c0-1.105,0.895-2,2-2h7c1.105,0,2,0.895,2,2v14C31,30.105,30.105,31,29,31z" stroke="#000000"></path></g></svg>