<svg xmlns="http://www.w3.org/2000/svg" viewBox="0 0 32 32"><title>text 2</title><g stroke-linecap="round" stroke-width="1" fill="none" stroke="#000000" stroke-linejoin="round" class="nc-icon-wrapper" transform="translate(0.5 0.5)"><line data-cap="butt" x1="16" y1="12" x2="16" y2="20" stroke="#000000"></line> <line x1="7" y1="4" x2="25" y2="4"></line> <rect x="1" y="1" width="6" height="6"></rect> <rect x="25" y="1" width="6" height="6"></rect> <line x1="7" y1="28" x2="25" y2="28"></line> <rect x="1" y="25" width="6" height="6"></rect> <rect x="25" y="25" width="6" height="6"></rect> <path data-cap="butt" d="M12,8c2.209,0,4,1.791,4,4" stroke="#000000"></path> <path data-cap="butt" d="M20,8c-2.209,0-4,1.791-4,4" stroke="#000000"></path> <path data-cap="butt" d="M20,24c-2.209,0-4-1.791-4-4" stroke="#000000"></path> <path data-cap="butt" d="M12,24c2.209,0,4-1.791,4-4" stroke="#000000"></path> <line data-cap="butt" x1="12" y1="18" x2="20" y2="18" stroke="#000000"></line> <line x1="4" y1="7" x2="4" y2="25"></line> <line x1="28" y1="7" x2="28" y2="25"></line></g></svg>