<svg xmlns="http://www.w3.org/2000/svg" viewBox="0 0 32 32"><title>transform origin</title><g stroke-linecap="round" stroke-width="1" fill="none" stroke="#000000" stroke-linejoin="round" class="nc-icon-wrapper" transform="translate(0.5 0.5)"><circle cx="4" cy="4" r="3"></circle> <circle cx="4" cy="16" r="3"></circle> <circle cx="28" cy="16" r="3"></circle> <circle cx="16" cy="4" r="3"></circle> <circle cx="28" cy="4" r="3"></circle> <line x1="7" y1="4" x2="13" y2="4"></line> <line x1="19" y1="4" x2="25" y2="4"></line> <circle cx="4" cy="28" r="3"></circle> <circle cx="16" cy="28" r="3"></circle> <circle cx="28" cy="28" r="3"></circle> <line x1="7" y1="28" x2="13" y2="28"></line> <line x1="19" y1="28" x2="25" y2="28"></line> <line x1="4" y1="7" x2="4" y2="13"></line> <line x1="4" y1="19" x2="4" y2="25"></line> <line x1="28" y1="7" x2="28" y2="13"></line> <line x1="28" y1="19" x2="28" y2="25"></line> <line x1="13" y1="16" x2="19" y2="16" stroke="#000000"></line> <line x1="16" y1="13" x2="16" y2="19" stroke="#000000"></line></g></svg>