<svg xmlns="http://www.w3.org/2000/svg" viewBox="0 0 32 32"><title>airplane</title><g stroke-linecap="round" stroke-width="1" fill="none" stroke="#000000" stroke-linejoin="round" class="nc-icon-wrapper" transform="translate(0.5 0.5)"><path data-cap="butt" d="M23.431,14.005,28.2,25.133a3,3,0,0,1-.636,3.3L26,30,18.575,18.862" stroke="#000000"></path><path data-cap="butt" d="M17.972,8.592,6.923,3.856a3,3,0,0,0-3.3.637L2.056,6.056l11.071,7.381" stroke="#000000"></path><path d="M14.908,22.529l-9.959,6.28a1.281,1.281,0,0,1-1.758-1.758l6.28-9.959L23.438,3.126a3.844,3.844,0,0,1,5.436,0h0a3.844,3.844,0,0,1,0,5.436Z"></path><polyline points="7.881 20 2 19.997 5.484 23.6"></polyline><polyline points="8.399 26.515 12 30 12 24.119"></polyline></g></svg>