<svg xmlns="http://www.w3.org/2000/svg" viewBox="0 0 32 32"><title>baby car seat</title><g stroke-linecap="round" stroke-width="1" fill="none" stroke="#000000" stroke-linejoin="round" class="nc-icon-wrapper" transform="translate(0.5 0.5)"><circle cx="12" cy="21" r="2" stroke="#000000"></circle><line x1="13.414" y1="19.586" x2="27" y2="6" stroke="#000000"></line><path d="M11.124,15.071,10.38,9.124a6,6,0,0,0-6.7-5.209L1.7,4.163,4.145,23.744A6,6,0,0,0,10.1,29H25.785a5.145,5.145,0,0,0,5.192-4.509A5,5,0,0,0,26,19a4.916,4.916,0,0,0-2.9.945A6.018,6.018,0,0,1,19.546,21H18"></path></g></svg>