<svg xmlns="http://www.w3.org/2000/svg" viewBox="0 0 32 32"><title>boat</title><g stroke-linecap="round" stroke-width="1" fill="none" stroke="#000000" stroke-linejoin="round" class="nc-icon-wrapper" transform="translate(0.5 0.5)"><polyline points=" 8,10 8,3 13,3 13,10 " stroke="#000000"></polyline> <polyline data-cap="butt" points="5,16 5,10 22,10 26,16 "></polyline> <polyline points="5,24 2,16 30,16 25,24 "></polyline> <path d="M1,25 c0,2.209,1.791,4,4,4c1.518,0,2.822-0.855,3.5-2.101C9.178,28.145,10.482,29,12,29s2.822-0.855,3.5-2.101 C16.178,28.145,17.482,29,19,29s2.822-0.855,3.5-2.101C23.178,28.145,24.482,29,26,29c2.209,0,4-1.791,4-4" stroke="#000000"></path></g></svg>