<svg xmlns="http://www.w3.org/2000/svg" viewBox="0 0 32 32"><title>boat front</title><g stroke-linecap="round" stroke-width="1" fill="none" stroke="#000000" stroke-linejoin="round" class="nc-icon-wrapper" transform="translate(0.5 0.5)"><line data-cap="butt" x1="16" y1="13" x2="16" y2="25"></line> <path d="M1,27 c0,2.209,1.791,4,4,4c1.518,0,2.822-0.855,3.5-2.101C9.178,30.145,10.482,31,12,31s2.822-0.855,3.5-2.101 C16.178,30.145,17.482,31,19,31s2.822-0.855,3.5-2.101C23.178,30.145,24.482,31,26,31c2.209,0,4-1.791,4-4" stroke="#000000"></path> <polyline points=" 13,8 13,1 19,1 19,8 " stroke="#000000"></polyline> <polyline data-cap="butt" points="7,18.25 7,8 25,8 25,18.25 "></polyline> <polyline points="6,26 4,20 16,13 28,20 26,26 "></polyline></g></svg>