<svg xmlns="http://www.w3.org/2000/svg" viewBox="0 0 32 32"><title>car front</title><g stroke-linecap="round" stroke-width="1" fill="none" stroke="#000000" stroke-linejoin="round" class="nc-icon-wrapper" transform="translate(0.5 0.5)"><path data-cap="butt" d="M28,14,26.279,3.671A2,2,0,0,0,24.306,2H7.694A2,2,0,0,0,5.721,3.671L4,14"></path><polyline points="9 27 9 30 3 30 3 27" stroke="#000000"></polyline><polyline points="29 27 29 30 23 30 23 27" stroke="#000000"></polyline><path d="M31,24H1V17.83a2,2,0,0,1,.585-1.414L4,14H28l2.414,2.414A2,2,0,0,1,31,17.828Z"></path><circle cx="6.5" cy="19.5" r="1.5" fill="#000000" stroke="none"></circle><circle cx="25.5" cy="19.5" r="1.5" fill="#000000" stroke="none"></circle></g></svg>