<svg xmlns="http://www.w3.org/2000/svg" viewBox="0 0 32 32"><title>car accident</title><g stroke-linecap="round" stroke-width="1" fill="none" stroke="#000000" stroke-linejoin="round" class="nc-icon-wrapper" transform="translate(0.5 0.5)"><path d="M9,11H6.781a1,1,0,0,0-.97.757L4,19" data-cap="butt"></path> <path d="M28,19l-1.811-7.243a1,1,0,0,0-.97-.757H23" data-cap="butt"></path> <path d="M30,28H2V21.414a1,1,0,0,1,.293-.707L4,19H28l1.707,1.707a1,1,0,0,1,.293.707Z"></path> <circle cx="6.5" cy="23.5" r="1.5" fill="#000000" stroke="none"></circle> <circle cx="25.5" cy="23.5" r="1.5" fill="#000000" stroke="none"></circle> <rect x="2" y="28" width="4" height="3"></rect> <rect x="2" y="28" width="4" height="3" fill="#000000" stroke="none"></rect> <rect x="26" y="28" width="4" height="3"></rect> <rect x="26" y="28" width="4" height="3" fill="#000000" stroke="none"></rect> <path d="M12,8.81C12,6.243,16,2,16,2s4,4.243,4,6.81a4,4,0,1,1-8,0Z" stroke="#000000"></path></g></svg>