<svg xmlns="http://www.w3.org/2000/svg" viewBox="0 0 32 32"><title>car connect</title><g stroke-linecap="round" stroke-width="1" fill="none" stroke="#000000" stroke-linejoin="round" class="nc-icon-wrapper" transform="translate(0.5 0.5)"><path d="M27,19l-1.811-7.243a1,1,0,0,0-.97-.757H7.781a1,1,0,0,0-.97.757L5,19" data-cap="butt"></path> <path d="M29,28H3V21.414a1,1,0,0,1,.293-.707L5,19H27l1.707,1.707a1,1,0,0,1,.293.707Z"></path> <circle cx="7.5" cy="23.5" r="1.5" fill="#000000" stroke="none"></circle> <circle cx="24.5" cy="23.5" r="1.5" fill="#000000" stroke="none"></circle> <rect x="3" y="28" width="4" height="3"></rect> <rect x="25" y="28" width="4" height="3"></rect> <rect x="3" y="28" width="4" height="3" fill="#000000" stroke="none"></rect> <rect x="25" y="28" width="4" height="3" fill="#000000" stroke="none"></rect> <path d="M12.535,8a4,4,0,0,1,6.929,0" stroke="#000000" data-cap="butt"></path> <path d="M8,5.873a9,9,0,0,1,16,0" stroke="#000000" data-cap="butt"></path></g></svg>