<svg xmlns="http://www.w3.org/2000/svg" viewBox="0 0 32 32"><title>car ventilation</title><g stroke-linecap="round" stroke-width="1" fill="none" stroke="#000000" stroke-linejoin="round" class="nc-icon-wrapper" transform="translate(0.5 0.5)"><path d="M26.875,22A35.276,35.276,0,0,1,31,23V5A51.96,51.96,0,0,0,16,3,51.96,51.96,0,0,0,1,5V23a37.788,37.788,0,0,1,5-1.159"></path> <path d="M10,29c4-4,0-8,0-8s-4-4,0-8" stroke="#000000"></path> <path d="M16,29c4-4,0-8,0-8s-4-4,0-8" stroke="#000000"></path> <path d="M22,29c4-4,0-8,0-8s-4-4,0-8" stroke="#000000"></path></g></svg>