<svg xmlns="http://www.w3.org/2000/svg" viewBox="0 0 32 32"><title>car</title><g stroke-linecap="round" stroke-width="1" fill="none" stroke="#000000" stroke-linejoin="round" class="nc-icon-wrapper" transform="translate(0.5 0.5)"><line x1="6" y1="19" x2="9" y2="19" stroke="#000000"></line> <line x1="22" y1="19" x2="26" y2="19" stroke="#000000"></line> <line x1="24" y1="17" x2="24" y2="21" stroke="#000000"></line> <path data-cap="butt" d="M28,14l-1.6-8.5C26.2,4,24.9,3,23.5,3 h-15c-1.4,0-2.7,1-3,2.5L4,14"></path> <polyline data-cap="butt" points="8,14 9.4,7 22.6,7 24,14 "></polyline> <polyline points="8,24 8,29 3,29 3,24 "></polyline> <polyline points="29,24 29,29 24,29 24,24 "></polyline> <path d="M31,24H1v-5.8 c0-0.8,0.3-1.6,0.9-2.1L4,14h24l2.1,2.1c0.6,0.6,0.9,1.3,0.9,2.1V24z"></path></g></svg>