<svg xmlns="http://www.w3.org/2000/svg" viewBox="0 0 32 32"><title>helicopter</title><g stroke-linecap="round" stroke-width="1" fill="none" stroke="#000000" stroke-linejoin="round" class="nc-icon-wrapper" transform="translate(0.5 0.5)"><line x1="11" y1="3" x2="31" y2="3" stroke="#000000"></line> <line x1="21" y1="3" x2="21" y2="8" stroke="#000000"></line> <line data-cap="butt" x1="19" y1="24" x2="17" y2="29"></line> <line data-cap="butt" x1="24" y1="24" x2="26" y2="29"></line> <polyline points=" 21,12 21,16 27,16 " stroke="#000000"></polyline> <path d="M7,8L6,3H2l1,9h8v4 c0,4.4,3.6,8,8,8h4c4.4,0,8-3.6,8-8v0c0-4.4-3.6-8-8-8H7z"></path> <path d="M11,29h17c1.7,0,3-1.3,3-3 v0"></path></g></svg>