<svg xmlns="http://www.w3.org/2000/svg" viewBox="0 0 32 32"><title>hybrid car</title><g stroke-linecap="round" stroke-width="1" fill="none" stroke="#000000" stroke-linejoin="round" class="nc-icon-wrapper" transform="translate(0.5 0.5)"><path d="M9,18H23a0,0,0,0,1,0,0v6a7,7,0,0,1-7,7h0a7,7,0,0,1-7-7V18A0,0,0,0,1,9,18Z"></path> <line x1="12" y1="18" x2="12" y2="14"></line> <line x1="20" y1="18" x2="20" y2="14"></line> <path d="M4,25a15,15,0,1,1,24,0" stroke="#000000"></path> <path d="M8,10a10,10,0,0,1,16,0" stroke="#000000"></path></g></svg>