<svg xmlns="http://www.w3.org/2000/svg" viewBox="0 0 32 32"><title>light traffic</title><g stroke-linecap="round" stroke-width="1" fill="none" stroke="#000000" stroke-linejoin="round" class="nc-icon-wrapper" transform="translate(0.5 0.5)"><polygon fill="#000000" points="5,10 3,10 0,4 5,4 " stroke="none"></polygon> <polygon fill="#000000" points="5,19 3,19 0,13 5,13 " stroke="none"></polygon> <polygon fill="#000000" points="5,28 3,28 0,22 5,22 " stroke="none"></polygon> <polygon fill="#000000" points="27,10 29,10 32,4 27,4 " stroke="none"></polygon> <polygon fill="#000000" points="27,19 29,19 32,13 27,13 " stroke="none"></polygon> <polygon fill="#000000" points="27,28 29,28 32,22 27,22 " stroke="none"></polygon> <rect x="8" y="1" width="16" height="30"></rect> <circle stroke="#000000" cx="16" cy="16" r="2"></circle> <circle stroke="#000000" cx="16" cy="7" r="2"></circle> <circle stroke="#000000" cx="16" cy="25" r="2"></circle></g></svg>