<svg xmlns="http://www.w3.org/2000/svg" viewBox="0 0 32 32"><title>love car</title><g stroke-linecap="round" stroke-width="1" fill="none" stroke="#000000" stroke-linejoin="round" class="nc-icon-wrapper" transform="translate(0.5 0.5)"><path d="M20.2,2.039a2.748,2.748,0,0,0-4.2.416,2.748,2.748,0,0,0-4.2-.416,2.671,2.671,0,0,0-.033,3.777l.033.033L16,10l4.2-4.15a2.672,2.672,0,0,0,.034-3.777Z" data-cap="butt" stroke="#000000"></path><line x1="23.05" y1="27" x2="9.95" y2="27" data-cap="butt"></line><path d="M5.05,27H1V22a3,3,0,0,1,3-3H9l3,1H28a3,3,0,0,1,3,3v4H27.95" data-cap="butt"></path><circle cx="7.5" cy="27.5" r="2.5" data-cap="butt"></circle><circle cx="25.5" cy="27.5" r="2.5" data-cap="butt"></circle><polyline points="20 14 23 20 19.222 20"></polyline><line x1="9" y1="15" x2="9" y2="19"></line></g></svg>