<svg xmlns="http://www.w3.org/2000/svg" viewBox="0 0 32 32"><title>moto</title><g stroke-linecap="round" stroke-width="1" fill="none" stroke="#000000" stroke-linejoin="round" class="nc-icon-wrapper" transform="translate(0.5 0.5)"><line data-cap="butt" x1="23" y1="22" x2="10" y2="22"></line> <path data-cap="butt" d="M30,19.4c0,0,0.2-3.1-2-4.4 c0.8-0.9,2-2.9,2-4c0-4.4-6.9-6-6.9-6l-1.2,1.2c1.1,0.6,2.5,2.1,2.5,3.1c0,0.9-0.6,1.6-1.4,1.8l-2.2-0.7C14.9,8.8,12,13,12,13H8 l-2-2l-5-1v2l5,5"></path> <circle cx="5.5" cy="21.5" r="4.5" stroke="#000000"></circle> <circle cx="27" cy="22" r="4" stroke="#000000"></circle> <line data-cap="butt" x1="23" y1="11" x2="20" y2="14"></line></g></svg>