<svg xmlns="http://www.w3.org/2000/svg" viewBox="0 0 32 32"><title>power level</title><g stroke-linecap="round" stroke-width="1" fill="none" stroke="#000000" stroke-linejoin="round" class="nc-icon-wrapper" transform="translate(0.5 0.5)"><line data-cap="butt" x1="14.95514" y1="9.06038" x2="14.32642" y2="3.09375" stroke="#000000"></line> <path d=" M13.17465,16.87224c0,0,5.20574,7.66213,5.69229,9.24593c0.48655,1.5838-0.40295,3.26216-1.98675,3.74871 c-1.5838,0.48655-3.26216-0.40295-3.74871-1.98675C12.64494,26.29632,13.17465,16.87224,13.17465,16.87224z" stroke="#000000"></path> <path d="M16,3 C10.44177,3,5.5907,6.04614,2.99945,10.54962l5.03577,3.27325C9.54321,10.95941,12.54529,9,16,9s6.45679,1.95941,7.96478,4.82288 l5.03577-3.27325C26.4093,6.04614,21.55823,3,16,3z"></path></g></svg>