<svg xmlns="http://www.w3.org/2000/svg" viewBox="0 0 32 32"><title>seat</title><g stroke-linecap="round" stroke-width="1" fill="none" stroke="#000000" stroke-linejoin="round" class="nc-icon-wrapper" transform="translate(0.5 0.5)"><path d="M12,1h8a1,1,0,0,1,1,1V6a0,0,0,0,1,0,0H11a0,0,0,0,1,0,0V2A1,1,0,0,1,12,1Z" stroke="#000000"></path> <line x1="16" y1="6" x2="16" y2="10" data-cap="butt" stroke="#000000"></line> <path d="M28,25H4a2,2,0,0,0-2,2v4H30V27A2,2,0,0,0,28,25Z"></path> <path d="M6,25,7.653,12.6A3,3,0,0,1,10.627,10H21.373a3,3,0,0,1,2.974,2.6L26,25" data-cap="butt"></path></g></svg>