<svg xmlns="http://www.w3.org/2000/svg" viewBox="0 0 32 32"><title>skateboard</title><g stroke-linecap="round" stroke-width="1" fill="none" stroke="#000000" stroke-linejoin="round" class="nc-icon-wrapper" transform="translate(0.5 0.5)"><line x1="10" y1="17" x2="7" y2="20" stroke="#000000"></line> <line x1="15" y1="22" x2="12" y2="25" stroke="#000000"></line> <line data-cap="butt" x1="8.5" y1="18.5" x2="13.5" y2="23.5" stroke="#000000"></line> <line x1="17" y1="10" x2="20" y2="7" stroke="#000000"></line> <line x1="22" y1="15" x2="25" y2="12" stroke="#000000"></line> <line data-cap="butt" x1="18.5" y1="8.5" x2="23.5" y2="13.5" stroke="#000000"></line> <path data-cap="butt" d="M4.283,27.717h0a7.888,7.888,0,0,1,.054-11.154L16.563,4.337a7.888,7.888,0,0,1,11.154-.054h0a7.888,7.888,0,0,1-.054,11.154L15.437,27.663A7.888,7.888,0,0,1,4.283,27.717Z"></path></g></svg>