<svg xmlns="http://www.w3.org/2000/svg" viewBox="0 0 32 32"><title>submarine</title><g stroke-linecap="round" stroke-width="1" fill="none" stroke="#000000" stroke-linejoin="round" class="nc-icon-wrapper" transform="translate(0.5 0.5)"><polyline points="22 13 21 8 12 8 10.944 13.278" data-cap="butt"></polyline><path d="M18,3a2,2,0,0,0-2,2V8"></path><circle cx="23" cy="19" r="1" data-cap="butt" stroke="#000000"></circle><circle cx="16" cy="19" r="1" data-cap="butt" stroke="#000000"></circle><circle cx="9" cy="19" r="1" data-cap="butt" stroke="#000000"></circle><path d="M25,13H15C9,13,1,15,1,19s8,6,14,6H25a6,6,0,0,0,0-12Z" data-cap="butt"></path><polyline points="5.849 23.535 4 26 3 25.999 3 22.135" data-cap="butt"></polyline><polyline points="5.848 14.464 4 12 3 11.999 3 15.861" data-cap="butt"></polyline></g></svg>