<svg xmlns="http://www.w3.org/2000/svg" viewBox="0 0 32 32"><title>taxi</title><g stroke-linecap="round" stroke-width="1" fill="none" stroke="#000000" stroke-linejoin="round" class="nc-icon-wrapper" transform="translate(0.5 0.5)"><polyline data-cap="butt" points="13 6 13 2 19 2 19 6" stroke="#000000"></polyline><path data-cap="butt" d="M28,14,26.158,8.105A3,3,0,0,0,23.294,6H8.706A3,3,0,0,0,5.842,8.105L4,14"></path><polyline points="7 26 7 30 1 30 1 26" stroke="#000000"></polyline><polyline points="31 26 31 30 25 30 25 26" stroke="#000000"></polyline><path d="M31,26H1V18.243a3,3,0,0,1,.879-2.122L4,14H28l2.121,2.121A3,3,0,0,1,31,18.243Z"></path><line x1="6" y1="19" x2="9" y2="19" stroke="#000000"></line><line x1="23" y1="19" x2="26" y2="19" stroke="#000000"></line></g></svg>