<svg xmlns="http://www.w3.org/2000/svg" viewBox="0 0 32 32"><title>vespa</title><g stroke-linecap="round" stroke-width="1" fill="none" stroke="#000000" stroke-linejoin="round" class="nc-icon-wrapper" transform="translate(0.5 0.5)"><path data-cap="butt" d="M1,13v10c0,1.1,0.9,2,2,2h1"></path> <polyline data-cap="butt" points="14,13 14,20 21,20 21,9 21,3 17,3 "></polyline> <line data-cap="butt" x1="29.3" y1="21.7" x2="25.3" y2="10"></line> <line data-cap="butt" x1="12" y1="25" x2="23" y2="25"></line> <circle cx="8" cy="25" r="4" stroke="#000000"></circle> <path d="M14,13H1v-3 c0-1.1,0.9-2,2-2h9c1.1,0,2,0.9,2,2V13z"></path> <circle cx="27" cy="25" r="4" stroke="#000000"></circle> <path d="M28,10h-3.5 C23.1,10,22,8.9,22,7.5v0C22,6.1,23.1,5,24.5,5H28V10z" stroke="#000000"></path></g></svg>