<svg xmlns="http://www.w3.org/2000/svg" viewBox="0 0 32 32"><title>vespa front</title><g stroke-linecap="round" stroke-width="1" fill="none" stroke="#000000" stroke-linejoin="round" class="nc-icon-wrapper" transform="translate(0.5 0.5)"><path data-cap="butt" d="M18.6,8c3,0.3,5.4,2.9,5.4,6v13h-5"></path> <path data-cap="butt" d="M13,27H8V14c0-3.1,2.4-5.7,5.4-6"></path> <line x1="12" y1="5" x2="8" y2="5"></line> <line x1="24" y1="5" x2="20" y2="5"></line> <path d="M16,31L16,31 c-1.7,0-3-1.3-3-3v-6c0-1.7,1.3-3,3-3h0c1.7,0,3,1.3,3,3v6C19,29.7,17.7,31,16,31z" stroke="#000000"></path> <circle cx="16" cy="5" r="4" stroke="#000000"></circle></g></svg>