<svg xmlns="http://www.w3.org/2000/svg" viewBox="0 0 32 32"><title>washing fluid</title><g stroke-linecap="round" stroke-width="1" fill="none" stroke="#000000" stroke-linejoin="round" class="nc-icon-wrapper" transform="translate(0.5 0.5)"><path d="M20,10.132A48.244,48.244,0,0,1,31,12V30a51.96,51.96,0,0,0-15-2A51.96,51.96,0,0,0,1,30V12a48.244,48.244,0,0,1,11-1.868"></path> <path d="M6,6a5,5,0,0,1,5-5h0a5,5,0,0,1,5,5V19" stroke="#000000"></path> <path d="M26,6a5,5,0,0,0-5-5h0a5,5,0,0,0-5,5" stroke="#000000"></path></g></svg>